<?xml version="1.0" standalone="no"?>
  <!DOCTYPE svg PUBLIC "-//W3C//DTD SVG 1.1//EN" "http://www.w3.org/Graphics/SVG/1.1/DTD/svg11.dtd" >
  <svg>
  <metadata>
  Created by font-carrier
  </metadata>
  <defs>
  <font id="Inter-SemiBoldItalic" horiz-adv-x="7552" vert-adv-y="7552" >
    <font-face
      
      font-family="Inter Semi Bold"
      
      font-weight="400"
      
      font-stretch="normal"
      
      units-per-em="2816"
      
      ascent="2728"
      
      descent="-680"
      
    />
      <missing-glyph />

      

      
      <glyph glyph-name="uni41" unicode="&#x41;" d="M337 0L591 505L1361 505L1446 0L1842 0L1460 2048L1002 2048L-59 0ZM740 803L1155 1628L1171 1628L1310 803Z"  horiz-adv-x="2038" vert-adv-y="2816"  />

      
      <glyph glyph-name="unic4" unicode="&#xc4;" d="M337 0L591 505L1361 505L1446 0L1842 0L1460 2048L1002 2048L-59 0ZM740 803L1155 1628L1171 1628L1310 803ZM1592 2274C1692 2274 1778 2350 1792 2440C1811 2558 1732 2651 1613 2651C1520 2651 1430 2580 1413 2485C1394 2370 1479 2274 1592 2274ZM992 2274C1092 2274 1178 2350 1192 2440C1211 2558 1132 2651 1013 2651C920 2651 828 2580 813 2485C796 2372 879 2274 992 2274Z"  horiz-adv-x="2038" vert-adv-y="2816"  />

      
      <glyph glyph-name="unic3" unicode="&#xc3;" d="M337 0L591 505L1361 505L1446 0L1842 0L1460 2048L1002 2048L-59 0ZM973 2250C989 2341 1049 2402 1120 2402C1253 2402 1268 2260 1462 2260C1640 2261 1803 2398 1843 2637L1630 2646C1616 2557 1557 2493 1481 2493C1356 2493 1310 2635 1135 2635C957 2635 795 2493 756 2255ZM740 803L1155 1628L1171 1628L1310 803Z"  horiz-adv-x="2038" vert-adv-y="2816"  />

      
      <glyph glyph-name="unic0" unicode="&#xc0;" d="M337 0L591 505L1361 505L1446 0L1842 0L1460 2048L1002 2048L-59 0ZM740 803L1155 1628L1171 1628L1310 803ZM1135 2250L1406 2250L1259 2707L905 2707Z"  horiz-adv-x="2038" vert-adv-y="2816"  />

      
      <glyph glyph-name="unic1" unicode="&#xc1;" d="M337 0L591 505L1361 505L1446 0L1842 0L1460 2048L1002 2048L-59 0ZM740 803L1155 1628L1171 1628L1310 803ZM1127 2250L1397 2250L1780 2707L1426 2707Z"  horiz-adv-x="2038" vert-adv-y="2816"  />

      
      <glyph glyph-name="unic2" unicode="&#xc2;" d="M337 0L591 505L1361 505L1446 0L1842 0L1460 2048L1002 2048L-59 0ZM1467 2232L1783 2232L1785 2246L1477 2678L1194 2678L745 2246L743 2232L1060 2232L1305 2488ZM740 803L1155 1628L1171 1628L1310 803Z"  horiz-adv-x="2038" vert-adv-y="2816"  />

      
      <glyph glyph-name="unic5" unicode="&#xc5;" d="M337 0L591 505L1361 505L1446 0L1842 0L1460 2048L1002 2048L-59 0ZM1263 2174C1426 2174 1574 2298 1602 2458C1630 2626 1509 2768 1333 2768C1170 2768 1023 2646 998 2484C971 2315 1090 2174 1263 2174ZM740 803L1155 1628L1171 1628L1310 803ZM1276 2335C1198 2335 1149 2397 1162 2471C1175 2549 1245 2606 1320 2606C1399 2606 1448 2546 1437 2471C1426 2394 1352 2335 1276 2335Z"  horiz-adv-x="2038" vert-adv-y="2816"  />

      
      <glyph glyph-name="uni01FA" unicode="&#x01FA;" d="M337 0L591 505L1361 505L1446 0L1842 0L1460 2048L1002 2048L-59 0ZM1289 2183C1452 2183 1600 2301 1628 2453C1656 2613 1535 2748 1359 2748C1196 2748 1049 2632 1024 2478C997 2317 1116 2183 1289 2183ZM740 803L1155 1628L1171 1628L1310 803ZM1267 2838L1513 2838L1835 3113L1514 3113ZM1302 2336C1224 2336 1175 2395 1188 2465C1201 2540 1271 2594 1346 2594C1425 2594 1474 2537 1463 2465C1452 2392 1378 2336 1302 2336Z"  horiz-adv-x="2038" vert-adv-y="2816"  />

      
      <glyph glyph-name="uniEE02" unicode="&#xEE02;" d="M337 0L591 505L1361 505L1445 3C1336-90 1281-208 1278-318C1270-489 1379-582 1552-582C1652-582 1735-550 1787-522L1784-318C1755-329 1715-346 1665-346C1596-346 1571-310 1584-246C1600-142 1709-69 1841 0L1842 0L1460 2048L1002 2048L-59 0ZM1263 2174C1426 2174 1574 2298 1602 2458C1630 2626 1509 2768 1333 2768C1170 2768 1023 2646 998 2484C971 2315 1090 2174 1263 2174ZM740 803L1155 1628L1171 1628L1310 803ZM1276 2335C1198 2335 1149 2397 1162 2471C1175 2549 1245 2606 1320 2606C1399 2606 1448 2546 1437 2471C1426 2394 1352 2335 1276 2335Z"  horiz-adv-x="2038" vert-adv-y="2816"  />

      
      <glyph glyph-name="uni0100" unicode="&#x0100;" d="M337 0L591 505L1361 505L1446 0L1842 0L1460 2048L1002 2048L-59 0ZM740 803L1155 1628L1171 1628L1310 803ZM1799 2560L835 2560L800 2339L1763 2339Z"  horiz-adv-x="2038" vert-adv-y="2816"  />

      
      <glyph glyph-name="uni0102" unicode="&#x0102;" d="M337 0L591 505L1361 505L1446 0L1842 0L1460 2048L1002 2048L-59 0ZM740 803L1155 1628L1171 1628L1310 803ZM1517 2576C1500 2478 1431 2391 1289 2391C1146 2391 1106 2480 1123 2576L853 2576C814 2342 968 2184 1254 2184C1542 2184 1749 2342 1788 2576Z"  horiz-adv-x="2038" vert-adv-y="2816"  />

      
      <glyph glyph-name="uni0104" unicode="&#x0104;" d="M337 0L591 505L1361 505L1445 3C1336-90 1281-208 1278-318C1270-489 1379-582 1552-582C1652-582 1735-550 1787-522L1784-318C1755-329 1715-346 1665-346C1596-346 1571-310 1584-246C1600-142 1709-69 1841 0L1842 0L1460 2048L1002 2048L-59 0ZM740 803L1155 1628L1171 1628L1310 803Z"  horiz-adv-x="2038" vert-adv-y="2816"  />

      
      <glyph glyph-name="uni01CD" unicode="&#x01CD;" d="M337 0L591 505L1361 505L1446 0L1842 0L1460 2048L1002 2048L-59 0ZM1132 2678L816 2678L814 2664L1122 2232L1405 2232L1854 2664L1856 2678L1539 2678L1294 2422ZM740 803L1155 1628L1171 1628L1310 803Z"  horiz-adv-x="2038" vert-adv-y="2816"  />

      
      <glyph glyph-name="uni01DE" unicode="&#x01DE;" d="M337 0L591 505L1361 505L1446 0L1842 0L1460 2048L1002 2048L-59 0ZM740 803L1155 1628L1171 1628L1310 803ZM1881 3072L917 3072L882 2851L1845 2851ZM1591 2274C1691 2274 1777 2350 1791 2440C1810 2558 1731 2651 1612 2651C1519 2651 1429 2580 1412 2485C1393 2370 1478 2274 1591 2274ZM991 2274C1091 2274 1177 2350 1191 2440C1210 2558 1131 2651 1012 2651C919 2651 827 2580 812 2485C795 2372 878 2274 991 2274Z"  horiz-adv-x="2038" vert-adv-y="2816"  />

      
      <glyph glyph-name="uni01E0" unicode="&#x01E0;" d="M337 0L591 505L1361 505L1446 0L1842 0L1460 2048L1002 2048L-59 0ZM740 803L1155 1628L1171 1628L1310 803ZM1872 3072L908 3072L873 2851L1836 2851ZM1275 2273C1384 2273 1480 2359 1487 2462C1495 2567 1413 2651 1304 2651C1195 2651 1099 2567 1091 2462C1082 2359 1166 2273 1275 2273Z"  horiz-adv-x="2038" vert-adv-y="2816"  />

      
      <glyph glyph-name="uni0200" unicode="&#x0200;" d="M337 0L591 505L1361 505L1446 0L1842 0L1460 2048L1002 2048L-59 0ZM740 803L1155 1628L1171 1628L1310 803ZM906 2250L1176 2250L1029 2707L664 2707ZM1377 2250L1642 2250L1587 2707L1229 2707Z"  horiz-adv-x="2038" vert-adv-y="2816"  />

      
      <glyph glyph-name="uni0202" unicode="&#x0202;" d="M337 0L591 505L1361 505L1446 0L1842 0L1460 2048L1002 2048L-59 0ZM806 2297L1077 2297C1090 2393 1160 2483 1305 2483C1445 2483 1485 2396 1471 2297L1742 2297C1781 2531 1626 2698 1339 2698C1050 2698 844 2531 806 2297ZM740 803L1155 1628L1171 1628L1310 803Z"  horiz-adv-x="2038" vert-adv-y="2816"  />

      
      <glyph glyph-name="uni0226" unicode="&#x0226;" d="M337 0L591 505L1361 505L1446 0L1842 0L1460 2048L1002 2048L-59 0ZM740 803L1155 1628L1171 1628L1310 803ZM1285 2266C1400 2266 1502 2354 1510 2462C1519 2571 1433 2659 1318 2659C1202 2659 1101 2571 1091 2462C1082 2354 1170 2266 1285 2266Z"  horiz-adv-x="2038" vert-adv-y="2816"  />

      
      <glyph glyph-name="uni1E00" unicode="&#x1E00;" d="M337 0L591 505L1361 505L1446 0L1842 0L1460 2048L1002 2048L-59 0ZM740 803L1155 1628L1171 1628L1310 803ZM578-320C557-458 654-555 801-555C940-555 1074-460 1095-320C1118-187 1018-86 878-86C731-86 601-187 578-320ZM726-320C737-260 790-214 855-214C912-214 956-260 946-320C935-383 877-429 820-429C755-429 716-383 726-320Z"  horiz-adv-x="2038" vert-adv-y="2816"  />

      
      <glyph glyph-name="uni1EA0" unicode="&#x1EA0;" d="M337 0L591 505L1361 505L1446 0L1842 0L1460 2048L1002 2048L-59 0ZM740 803L1155 1628L1171 1628L1310 803ZM818-550C933-550 1035-462 1043-354C1052-245 966-157 851-157C735-157 634-245 624-354C615-462 703-550 818-550Z"  horiz-adv-x="2038" vert-adv-y="2816"  />

      
      <glyph glyph-name="uni1EA2" unicode="&#x1EA2;" d="M337 0L591 505L1361 505L1446 0L1842 0L1460 2048L1002 2048L-59 0ZM740 803L1155 1628L1171 1628L1310 803ZM1408 2264L1422 2356C1533 2372 1646 2429 1668 2556C1694 2722 1538 2824 1209 2824L1168 2645C1284 2645 1370 2621 1357 2549C1349 2493 1290 2462 1149 2456L1132 2264Z"  horiz-adv-x="2038" vert-adv-y="2816"  />

      
      <glyph glyph-name="uni1EA4" unicode="&#x1EA4;" d="M337 0L591 505L1361 505L1446 0L1842 0L1460 2048L1002 2048L-59 0ZM740 803L1155 1628L1171 1628L1310 803ZM743 2219L1045 2219L1292 2403L1480 2219L1781 2219L1430 2548L1203 2548ZM1708 2419L1938 2419L2309 2788L1991 2788Z"  horiz-adv-x="2038" vert-adv-y="2816"  />

      
      <glyph glyph-name="uni1EA6" unicode="&#x1EA6;" d="M337 0L591 505L1361 505L1446 0L1842 0L1460 2048L1002 2048L-59 0ZM740 803L1155 1628L1171 1628L1310 803ZM1426 2547L1200 2547L744 2218L1043 2218L1293 2402L1478 2218L1779 2218ZM723 2788L406 2788L656 2418L882 2418Z"  horiz-adv-x="2038" vert-adv-y="2816"  />

      
      <glyph glyph-name="uni1EA8" unicode="&#x1EA8;" d="M337 0L591 505L1361 505L1446 0L1842 0L1460 2048L1002 2048L-59 0ZM740 803L1155 1628L1171 1628L1310 803ZM1440 2536L1185 2536L740 2207L1019 2207L1290 2408L1496 2207L1775 2207ZM1879 2388L1891 2464C1981 2478 2079 2527 2097 2635C2121 2775 1999 2860 1738 2860L1701 2709C1803 2709 1875 2690 1866 2627C1857 2577 1801 2556 1687 2550L1675 2388Z"  horiz-adv-x="2038" vert-adv-y="2816"  />

      
      <glyph glyph-name="uni1EAA" unicode="&#x1EAA;" d="M337 0L591 505L1361 505L1446 0L1842 0L1460 2048L1002 2048L-59 0ZM740 803L1155 1628L1171 1628L1310 803ZM1414 2512L1198 2512L737 2195L1019 2195L1283 2379L1494 2195L1772 2195ZM1592 2856C1584 2807 1535 2754 1489 2754C1389 2754 1318 2841 1213 2841C1093 2841 993 2731 977 2626L1103 2590C1111 2639 1158 2687 1207 2687C1309 2687 1353 2595 1483 2595C1602 2595 1702 2703 1721 2811Z"  horiz-adv-x="2038" vert-adv-y="2816"  />

      
      <glyph glyph-name="uni1EAC" unicode="&#x1EAC;" d="M337 0L591 505L1361 505L1446 0L1842 0L1460 2048L1002 2048L-59 0ZM1467 2232L1783 2232L1785 2246L1477 2678L1194 2678L745 2246L743 2232L1060 2232L1305 2488ZM740 803L1155 1628L1171 1628L1310 803ZM818-550C933-550 1035-462 1043-354C1052-245 966-157 851-157C735-157 634-245 624-354C615-462 703-550 818-550Z"  horiz-adv-x="2038" vert-adv-y="2816"  />

      
      <glyph glyph-name="uni1EAE" unicode="&#x1EAE;" d="M337 0L591 505L1361 505L1446 0L1842 0L1460 2048L1002 2048L-59 0ZM740 803L1155 1628L1171 1628L1310 803ZM1520 2529C1507 2448 1436 2373 1282 2373C1126 2373 1080 2448 1092 2529L836 2529C805 2343 964 2214 1253 2214C1543 2214 1747 2343 1779 2529ZM1203 2539L1400 2539L1685 2799L1415 2799Z"  horiz-adv-x="2038" vert-adv-y="2816"  />

      
      <glyph glyph-name="uni1EB0" unicode="&#x1EB0;" d="M337 0L591 505L1361 505L1446 0L1842 0L1460 2048L1002 2048L-59 0ZM740 803L1155 1628L1171 1628L1310 803ZM1520 2531C1507 2450 1434 2375 1282 2375C1126 2375 1080 2450 1092 2531L836 2531C806 2348 966 2217 1255 2217C1546 2217 1749 2348 1779 2531ZM1232 2539L1426 2539L1305 2799L1035 2799Z"  horiz-adv-x="2038" vert-adv-y="2816"  />

      
      <glyph glyph-name="uni1EB2" unicode="&#x1EB2;" d="M337 0L591 505L1361 505L1446 0L1842 0L1460 2048L1002 2048L-59 0ZM740 803L1155 1628L1171 1628L1310 803ZM1511 2528C1500 2447 1428 2378 1275 2378C1124 2378 1076 2446 1087 2528L833 2528C803 2342 961 2216 1248 2216C1538 2216 1737 2342 1767 2528ZM1424 2567L1439 2642C1543 2654 1654 2696 1669 2795C1691 2922 1549 3001 1245 3001L1210 2862C1326 2862 1411 2847 1400 2788C1392 2744 1333 2725 1197 2721L1188 2567Z"  horiz-adv-x="2038" vert-adv-y="2816"  />

      
      <glyph glyph-name="uni1EB4" unicode="&#x1EB4;" d="M337 0L591 505L1361 505L1446 0L1842 0L1460 2048L1002 2048L-59 0ZM740 803L1155 1628L1171 1628L1310 803ZM1513 2535C1501 2453 1430 2385 1280 2385C1125 2385 1078 2454 1091 2535L836 2535C804 2347 966 2217 1251 2217C1538 2217 1738 2347 1770 2535ZM1626 2955C1614 2887 1558 2835 1507 2835C1387 2835 1318 2929 1198 2929C1062 2929 946 2808 924 2676L1072 2635C1084 2703 1138 2753 1192 2753C1312 2753 1351 2660 1501 2660C1635 2660 1753 2775 1773 2908Z"  horiz-adv-x="2038" vert-adv-y="2816"  />

      
      <glyph glyph-name="uni1EB6" unicode="&#x1EB6;" d="M337 0L591 505L1361 505L1446 0L1842 0L1460 2048L1002 2048L-59 0ZM740 803L1155 1628L1171 1628L1310 803ZM1517 2576C1500 2478 1431 2391 1289 2391C1146 2391 1106 2480 1123 2576L853 2576C814 2342 968 2184 1254 2184C1542 2184 1749 2342 1788 2576ZM818-550C933-550 1035-462 1043-354C1052-245 966-157 851-157C735-157 634-245 624-354C615-462 703-550 818-550Z"  horiz-adv-x="2038" vert-adv-y="2816"  />

      
      <glyph glyph-name="uni0391" unicode="&#x0391;" d="M337 0L591 505L1361 505L1446 0L1842 0L1460 2048L1002 2048L-59 0ZM740 803L1155 1628L1171 1628L1310 803Z"  horiz-adv-x="2038" vert-adv-y="2816"  />

      
      <glyph glyph-name="uni0386" unicode="&#x0386;" d="M337 0L591 505L1361 505L1446 0L1842 0L1460 2048L1002 2048L-59 0ZM740 803L1155 1628L1171 1628L1310 803ZM390 1716L612 1716L901 2189L562 2189Z"  horiz-adv-x="2038" vert-adv-y="2816"  />

      
      <glyph glyph-name="uni1F08" unicode="&#x1F08;" d="M337 0L591 505L1361 505L1446 0L1842 0L1460 2048L1002 2048L-59 0ZM740 803L1155 1628L1171 1628L1310 803ZM780 2048L537 2048L520 1931C501 1815 457 1730 364 1663L461 1552C616 1624 733 1755 761 1923Z"  horiz-adv-x="2038" vert-adv-y="2816"  />

      
      <glyph glyph-name="uni1F09" unicode="&#x1F09;" d="M337 0L591 505L1361 505L1446 0L1842 0L1460 2048L1002 2048L-59 0ZM740 803L1155 1628L1171 1628L1310 803ZM437 1923C412 1755 485 1624 614 1552L749 1663C678 1731 666 1823 684 1931L703 2048L459 2048Z"  horiz-adv-x="2038" vert-adv-y="2816"  />

      
      <glyph glyph-name="uni1F0A" unicode="&#x1F0A;" d="M337 0L591 505L1361 505L1446 0L1842 0L1460 2048L1002 2048L-59 0ZM740 803L1155 1628L1171 1628L1310 803ZM297 2053L42 2053L26 1949C7 1819-49 1725-139 1641L-42 1557C134 1645 253 1781 281 1941ZM742 1609L655 2053L361 2053L357 2025L607 1589L738 1589Z"  horiz-adv-x="2038" vert-adv-y="2816"  />

      
      <glyph glyph-name="uni1F0B" unicode="&#x1F0B;" d="M337 0L591 505L1361 505L1446 0L1842 0L1460 2048L1002 2048L-59 0ZM740 803L1155 1628L1171 1628L1310 803ZM-1 1923C-28 1755 45 1624 179 1552L314 1663C238 1731 228 1823 248 1931L267 2048L20 2048ZM753 1610L670 2048L372 2048L368 2020L618 1582L749 1582Z"  horiz-adv-x="2038" vert-adv-y="2816"  />

      
      <glyph glyph-name="uni1F0C" unicode="&#x1F0C;" d="M337 0L591 505L1361 505L1446 0L1842 0L1460 2048L1002 2048L-59 0ZM740 803L1155 1628L1171 1628L1310 803ZM353 2048L107 2048L87 1931C67 1823 26 1731-67 1663L27 1552C184 1624 305 1757 331 1923ZM311 1582L443 1582L837 2020L841 2048L547 2048L315 1610Z"  horiz-adv-x="2038" vert-adv-y="2816"  />

      
      <glyph glyph-name="uni1F0D" unicode="&#x1F0D;" d="M337 0L591 505L1361 505L1446 0L1842 0L1460 2048L1002 2048L-59 0ZM740 803L1155 1628L1171 1628L1310 803ZM106 1552L242 1663C172 1730 158 1815 177 1931L196 2048L-49 2048L-70 1923C-97 1752-20 1622 106 1552ZM298 1582L426 1582L822 2020L826 2048L528 2048L302 1610Z"  horiz-adv-x="2038" vert-adv-y="2816"  />

      
      <glyph glyph-name="uni1F0E" unicode="&#x1F0E;" d="M337 0L591 505L1361 505L1446 0L1842 0L1460 2048L1002 2048L-59 0ZM740 803L1155 1628L1171 1628L1310 803ZM854 2385C845 2319 789 2267 733 2267C618 2267 551 2363 428 2363C293 2363 179 2240 156 2108L304 2065C317 2132 366 2185 423 2185C545 2185 582 2090 730 2090C866 2090 978 2206 1002 2338ZM680 2020L461 2020L444 1917C431 1836 400 1757 319 1700L419 1610C545 1672 642 1788 663 1915Z"  horiz-adv-x="2038" vert-adv-y="2816"  />

      
      <glyph glyph-name="uni1F0F" unicode="&#x1F0F;" d="M337 0L591 505L1361 505L1446 0L1842 0L1460 2048L1002 2048L-59 0ZM740 803L1155 1628L1171 1628L1310 803ZM836 2385C827 2319 771 2267 715 2267C600 2267 533 2363 410 2363C275 2363 161 2240 138 2108L286 2065C299 2132 348 2185 405 2185C527 2185 564 2090 712 2090C848 2090 960 2206 984 2338ZM420 1915C400 1785 458 1671 559 1610L694 1700C631 1757 627 1836 639 1917L657 2020L438 2020Z"  horiz-adv-x="2038" vert-adv-y="2816"  />

      
      <glyph glyph-name="uni1FB8" unicode="&#x1FB8;" d="M337 0L591 505L1361 505L1446 0L1842 0L1460 2048L1002 2048L-59 0ZM740 803L1155 1628L1171 1628L1310 803ZM1517 2576C1500 2478 1431 2391 1289 2391C1146 2391 1106 2480 1123 2576L853 2576C814 2342 968 2184 1254 2184C1542 2184 1749 2342 1788 2576Z"  horiz-adv-x="2038" vert-adv-y="2816"  />

      
      <glyph glyph-name="uni1FB9" unicode="&#x1FB9;" d="M337 0L591 505L1361 505L1446 0L1842 0L1460 2048L1002 2048L-59 0ZM740 803L1155 1628L1171 1628L1310 803ZM1799 2560L835 2560L800 2339L1763 2339Z"  horiz-adv-x="2038" vert-adv-y="2816"  />

      
      <glyph glyph-name="uni1FBA" unicode="&#x1FBA;" d="M337 0L591 505L1361 505L1446 0L1842 0L1460 2048L1002 2048L-59 0ZM740 803L1155 1628L1171 1628L1310 803ZM577 1580L711 1580L711 1614L625 2048L327 2048L327 2020Z"  horiz-adv-x="2038" vert-adv-y="2816"  />

      
      <glyph glyph-name="uni023A" unicode="&#x023A;" d="M1929 2308L1678 2308L1484 1920L1460 2048L1002 2048L-59 0L337 0L591 505L776 505L393-260L643-260L1026 505L1361 505L1446 0L1842 0L1552 1555ZM925 803L740 803L1155 1628L1171 1628L1213 1379ZM1276 1005L1310 803L1175 803Z"  horiz-adv-x="2038" vert-adv-y="2816"  />

      
      <glyph glyph-name="uni1FBB" unicode="&#x1FBB;" d="M337 0L591 505L1361 505L1446 0L1842 0L1460 2048L1002 2048L-59 0ZM740 803L1155 1628L1171 1628L1310 803ZM402 1728L586 1728L983 2168L987 2196L636 2196L408 1762Z"  horiz-adv-x="2038" vert-adv-y="2816"  />

      
      <glyph glyph-name="uni0410" unicode="&#x0410;" d="M337 0L591 505L1361 505L1446 0L1842 0L1460 2048L1002 2048L-59 0ZM740 803L1155 1628L1171 1628L1310 803Z"  horiz-adv-x="2038" vert-adv-y="2816"  />

      
      <glyph glyph-name="uni04D0" unicode="&#x04D0;" d="M337 0L591 505L1361 505L1446 0L1842 0L1460 2048L1002 2048L-59 0ZM740 803L1155 1628L1171 1628L1310 803ZM1517 2576C1500 2478 1431 2391 1289 2391C1146 2391 1106 2480 1123 2576L853 2576C814 2342 968 2184 1254 2184C1542 2184 1749 2342 1788 2576Z"  horiz-adv-x="2038" vert-adv-y="2816"  />

      
      <glyph glyph-name="uni04D2" unicode="&#x04D2;" d="M337 0L591 505L1361 505L1446 0L1842 0L1460 2048L1002 2048L-59 0ZM740 803L1155 1628L1171 1628L1310 803ZM1592 2274C1692 2274 1778 2350 1792 2440C1811 2558 1732 2651 1613 2651C1520 2651 1430 2580 1413 2485C1394 2370 1479 2274 1592 2274ZM992 2274C1092 2274 1178 2350 1192 2440C1211 2558 1132 2651 1013 2651C920 2651 828 2580 813 2485C796 2372 879 2274 992 2274Z"  horiz-adv-x="2038" vert-adv-y="2816"  />

      
      <glyph glyph-name="uni1F88" unicode="&#x1F88;" d="M337 0L591 505L1361 505L1446 0L1842 0L1460 2048L1002 2048L-59 0ZM740 803L1155 1628L1171 1628L1310 803ZM914-680C968-680 1006-672 1038-662L1065-506C1051-506 1028-510 1002-510C952-510 933-484 945-420L992-128L754-128L705-422C675-604 772-680 914-680ZM780 2048L537 2048L520 1931C501 1815 457 1730 364 1663L461 1552C616 1624 733 1755 761 1923Z"  horiz-adv-x="2038" vert-adv-y="2816"  />

      
      <glyph glyph-name="uni1F89" unicode="&#x1F89;" d="M337 0L591 505L1361 505L1446 0L1842 0L1460 2048L1002 2048L-59 0ZM740 803L1155 1628L1171 1628L1310 803ZM914-680C968-680 1006-672 1038-662L1065-506C1051-506 1028-510 1002-510C952-510 933-484 945-420L992-128L754-128L705-422C675-604 772-680 914-680ZM437 1923C412 1755 485 1624 614 1552L749 1663C678 1731 666 1823 684 1931L703 2048L459 2048Z"  horiz-adv-x="2038" vert-adv-y="2816"  />

      
      <glyph glyph-name="uni1F8A" unicode="&#x1F8A;" d="M337 0L591 505L1361 505L1446 0L1842 0L1460 2048L1002 2048L-59 0ZM740 803L1155 1628L1171 1628L1310 803ZM914-680C968-680 1006-672 1038-662L1065-506C1051-506 1028-510 1002-510C952-510 933-484 945-420L992-128L754-128L705-422C675-604 772-680 914-680ZM297 2053L42 2053L26 1949C7 1819-49 1725-139 1641L-42 1557C134 1645 253 1781 281 1941ZM742 1609L655 2053L361 2053L357 2025L607 1589L738 1589Z"  horiz-adv-x="2038" vert-adv-y="2816"  />

      
      <glyph glyph-name="uni1F8B" unicode="&#x1F8B;" d="M337 0L591 505L1361 505L1446 0L1842 0L1460 2048L1002 2048L-59 0ZM740 803L1155 1628L1171 1628L1310 803ZM914-680C968-680 1006-672 1038-662L1065-506C1051-506 1028-510 1002-510C952-510 933-484 945-420L992-128L754-128L705-422C675-604 772-680 914-680ZM-1 1923C-28 1755 45 1624 179 1552L314 1663C238 1731 228 1823 248 1931L267 2048L20 2048ZM753 1610L670 2048L372 2048L368 2020L618 1582L749 1582Z"  horiz-adv-x="2038" vert-adv-y="2816"  />

      
      <glyph glyph-name="uni1F8C" unicode="&#x1F8C;" d="M337 0L591 505L1361 505L1446 0L1842 0L1460 2048L1002 2048L-59 0ZM740 803L1155 1628L1171 1628L1310 803ZM914-680C968-680 1006-672 1038-662L1065-506C1051-506 1028-510 1002-510C952-510 933-484 945-420L992-128L754-128L705-422C675-604 772-680 914-680ZM353 2048L107 2048L87 1931C67 1823 26 1731-67 1663L27 1552C184 1624 305 1757 331 1923ZM311 1582L443 1582L837 2020L841 2048L547 2048L315 1610Z"  horiz-adv-x="2038" vert-adv-y="2816"  />

      
      <glyph glyph-name="uni1F8D" unicode="&#x1F8D;" d="M337 0L591 505L1361 505L1446 0L1842 0L1460 2048L1002 2048L-59 0ZM740 803L1155 1628L1171 1628L1310 803ZM914-680C968-680 1006-672 1038-662L1065-506C1051-506 1028-510 1002-510C952-510 933-484 945-420L992-128L754-128L705-422C675-604 772-680 914-680ZM106 1552L242 1663C172 1730 158 1815 177 1931L196 2048L-49 2048L-70 1923C-97 1752-20 1622 106 1552ZM298 1582L426 1582L822 2020L826 2048L528 2048L302 1610Z"  horiz-adv-x="2038" vert-adv-y="2816"  />

      
      <glyph glyph-name="uni1F8E" unicode="&#x1F8E;" d="M337 0L591 505L1361 505L1446 0L1842 0L1460 2048L1002 2048L-59 0ZM740 803L1155 1628L1171 1628L1310 803ZM854 2385C845 2319 789 2267 733 2267C618 2267 551 2363 428 2363C293 2363 179 2240 156 2108L304 2065C317 2132 366 2185 423 2185C545 2185 582 2090 730 2090C866 2090 978 2206 1002 2338ZM914-680C968-680 1006-672 1038-662L1065-506C1051-506 1028-510 1002-510C952-510 933-484 945-420L992-128L754-128L705-422C675-604 772-680 914-680ZM680 2020L461 2020L444 1917C431 1836 400 1757 319 1700L419 1610C545 1672 642 1788 663 1915Z"  horiz-adv-x="2038" vert-adv-y="2816"  />

      
      <glyph glyph-name="uni1F8F" unicode="&#x1F8F;" d="M337 0L591 505L1361 505L1446 0L1842 0L1460 2048L1002 2048L-59 0ZM740 803L1155 1628L1171 1628L1310 803ZM836 2385C827 2319 771 2267 715 2267C600 2267 533 2363 410 2363C275 2363 161 2240 138 2108L286 2065C299 2132 348 2185 405 2185C527 2185 564 2090 712 2090C848 2090 960 2206 984 2338ZM914-680C968-680 1006-672 1038-662L1065-506C1051-506 1028-510 1002-510C952-510 933-484 945-420L992-128L754-128L705-422C675-604 772-680 914-680ZM420 1915C400 1785 458 1671 559 1610L694 1700C631 1757 627 1836 639 1917L657 2020L438 2020Z"  horiz-adv-x="2038" vert-adv-y="2816"  />

      
      <glyph glyph-name="uni1FBC" unicode="&#x1FBC;" d="M337 0L591 505L1361 505L1446 0L1842 0L1460 2048L1002 2048L-59 0ZM740 803L1155 1628L1171 1628L1310 803ZM914-680C968-680 1006-672 1038-662L1065-506C1051-506 1028-510 1002-510C952-510 933-484 945-420L992-128L754-128L705-422C675-604 772-680 914-680Z"  horiz-adv-x="2038" vert-adv-y="2816"  />

      
      <glyph glyph-name="uni039B" unicode="&#x039B;" d="M337 0L1153 1628L1174 1628L1446 0L1842 0L1460 2048L1002 2048L-59 0Z"  horiz-adv-x="2038" vert-adv-y="2816"  />

      
      <glyph glyph-name="unic6" unicode="&#xc6;" d="M-59 0L349 0L652 505L1310 505L1226 0L2566 0L2618 311L1649 311L1741 870L2633 870L2685 1181L1793 1181L1885 1737L2846 1737L2898 2048L1196 2048ZM830 803L1362 1690L1507 1690L1360 803Z"  horiz-adv-x="2863" vert-adv-y="2816"  />

      
      <glyph glyph-name="uni01E2" unicode="&#x01E2;" d="M-59 0L349 0L652 505L1310 505L1226 0L2566 0L2618 311L1649 311L1741 870L2633 870L2685 1181L1793 1181L1885 1737L2846 1737L2898 2048L1196 2048ZM830 803L1362 1690L1507 1690L1360 803ZM2616 2560L1652 2560L1617 2339L2580 2339Z"  horiz-adv-x="2863" vert-adv-y="2816"  />

      
      <glyph glyph-name="uni01FC" unicode="&#x01FC;" d="M-59 0L349 0L652 505L1310 505L1226 0L2566 0L2618 311L1649 311L1741 870L2633 870L2685 1181L1793 1181L1885 1737L2846 1737L2898 2048L1196 2048ZM830 803L1362 1690L1507 1690L1360 803ZM1944 2250L2214 2250L2597 2707L2243 2707Z"  horiz-adv-x="2863" vert-adv-y="2816"  />

      
      <glyph glyph-name="uni04D4" unicode="&#x04D4;" d="M-59 0L349 0L652 505L1310 505L1226 0L2566 0L2618 311L1649 311L1741 870L2633 870L2685 1181L1793 1181L1885 1737L2846 1737L2898 2048L1196 2048ZM830 803L1362 1690L1507 1690L1360 803Z"  horiz-adv-x="2863" vert-adv-y="2816"  />

      
      <glyph glyph-name="uni42" unicode="&#x42;" d="M74 0L903 0C1371 0 1642 239 1695 558C1746 868 1556 1050 1340 1061L1344 1081C1550 1129 1730 1269 1773 1517C1825 1822 1642 2048 1198 2048L414 2048ZM497 310L596 910L1006 910C1235 910 1352 770 1323 587C1296 425 1164 310 896 310ZM642 1177L734 1742L1110 1742C1327 1742 1422 1628 1394 1469C1367 1290 1201 1177 1009 1177Z"  horiz-adv-x="1851" vert-adv-y="2816"  />

      
      <glyph glyph-name="uni1E02" unicode="&#x1E02;" d="M74 0L903 0C1371 0 1642 239 1695 558C1746 868 1556 1050 1340 1061L1344 1081C1550 1129 1730 1269 1773 1517C1825 1822 1642 2048 1198 2048L414 2048ZM497 310L596 910L1006 910C1235 910 1352 770 1323 587C1296 425 1164 310 896 310ZM642 1177L734 1742L1110 1742C1327 1742 1422 1628 1394 1469C1367 1290 1201 1177 1009 1177ZM1157 2266C1272 2266 1374 2354 1382 2462C1391 2571 1305 2659 1190 2659C1074 2659 973 2571 963 2462C954 2354 1042 2266 1157 2266Z"  horiz-adv-x="1851" vert-adv-y="2816"  />

      
      <glyph glyph-name="uni1E04" unicode="&#x1E04;" d="M74 0L903 0C1371 0 1642 239 1695 558C1746 868 1556 1050 1340 1061L1344 1081C1550 1129 1730 1269 1773 1517C1825 1822 1642 2048 1198 2048L414 2048ZM497 310L596 910L1006 910C1235 910 1352 770 1323 587C1296 425 1164 310 896 310ZM642 1177L734 1742L1110 1742C1327 1742 1422 1628 1394 1469C1367 1290 1201 1177 1009 1177ZM697-550C812-550 914-462 922-354C931-245 845-157 730-157C614-157 513-245 503-354C494-462 582-550 697-550Z"  horiz-adv-x="1851" vert-adv-y="2816"  />

      
      <glyph glyph-name="uni1E06" unicode="&#x1E06;" d="M74 0L903 0C1371 0 1642 239 1695 558C1746 868 1556 1050 1340 1061L1344 1081C1550 1129 1730 1269 1773 1517C1825 1822 1642 2048 1198 2048L414 2048ZM497 310L596 910L1006 910C1235 910 1352 770 1323 587C1296 425 1164 310 896 310ZM642 1177L734 1742L1110 1742C1327 1742 1422 1628 1394 1469C1367 1290 1201 1177 1009 1177ZM1210-254L246-254L211-475L1174-475Z"  horiz-adv-x="1851" vert-adv-y="2816"  />

      
      <glyph glyph-name="uni0243" unicode="&#x0243;" d="M247 0L1076 0C1544 0 1815 239 1868 558C1919 868 1729 1050 1513 1061L1517 1081C1723 1129 1903 1269 1946 1517C1998 1822 1815 2048 1371 2048L587 2048L367 724L64 724L24 495L329 495ZM815 1177L907 1742L1283 1742C1500 1742 1595 1628 1567 1469C1540 1290 1374 1177 1182 1177ZM670 310L701 495L983 495L1023 724L738 724L769 910L1179 910C1408 910 1525 770 1496 587C1469 425 1337 310 1069 310Z"  horiz-adv-x="2022" vert-adv-y="2816"  />

      
      <glyph glyph-name="uni0181" unicode="&#x0181;" d="M603 0L1432 0C1900 0 2171 239 2224 558C2275 868 2085 1050 1869 1061L1873 1081C2079 1129 2259 1269 2302 1517C2354 1822 2171 2048 1727 2048L850 2048C520 2048 287 1850 243 1560L215 1381L550 1381L566 1486C585 1610 639 1738 802 1738L892 1738ZM1026 310L1125 910L1535 910C1764 910 1881 770 1852 587C1825 425 1693 310 1425 310ZM1171 1177L1263 1742L1639 1742C1856 1742 1951 1628 1923 1469C1896 1290 1730 1177 1538 1177Z"  horiz-adv-x="2380" vert-adv-y="2816"  />

      
      <glyph glyph-name="uni0412" unicode="&#x0412;" d="M74 0L903 0C1371 0 1642 239 1695 558C1746 868 1556 1050 1340 1061L1344 1081C1550 1129 1730 1269 1773 1517C1825 1822 1642 2048 1198 2048L414 2048ZM497 310L596 910L1006 910C1235 910 1352 770 1323 587C1296 425 1164 310 896 310ZM642 1177L734 1742L1110 1742C1327 1742 1422 1628 1394 1469C1367 1290 1201 1177 1009 1177Z"  horiz-adv-x="1851" vert-adv-y="2816"  />

      
      <glyph glyph-name="uni0392" unicode="&#x0392;" d="M74 0L903 0C1371 0 1642 239 1695 558C1746 868 1556 1050 1340 1061L1344 1081C1550 1129 1730 1269 1773 1517C1825 1822 1642 2048 1198 2048L414 2048ZM497 310L596 910L1006 910C1235 910 1352 770 1323 587C1296 425 1164 310 896 310ZM642 1177L734 1742L1110 1742C1327 1742 1422 1628 1394 1469C1367 1290 1201 1177 1009 1177Z"  horiz-adv-x="1851" vert-adv-y="2816"  />

      
      <glyph glyph-name="uni43" unicode="&#x43;" d="M2050 1357C2061 1812 1748 2076 1285 2076C760 2076 306 1699 197 1046C87 374 428-28 978-28C1455-28 1818 289 1941 680L1568 680C1480 441 1252 305 995 305C676 305 487 543 562 1002C640 1474 931 1743 1276 1743C1516 1743 1680 1602 1682 1357Z"  horiz-adv-x="2094" vert-adv-y="2816"  />

      
      <glyph glyph-name="uni0187" unicode="&#x0187;" d="M2050 1357L2082 1557C2111 1740 2254 1797 2380 1797C2413 1797 2459 1793 2486 1790L2534 2086C2478 2098 2420 2098 2358 2098C2165 2098 1978 2021 1858 1875C1723 2006 1524 2076 1285 2076C760 2076 306 1699 197 1046C87 374 428-28 978-28C1455-28 1818 289 1941 680L1568 680C1480 441 1252 305 995 305C676 305 487 543 562 1002C640 1474 931 1743 1276 1743C1516 1743 1680 1602 1682 1357Z"  horiz-adv-x="2294" vert-adv-y="2816"  />

      
      <glyph glyph-name="unic7" unicode="&#xc7;" d="M2050 1357C2061 1812 1748 2076 1285 2076C760 2076 306 1699 197 1046C95 425 379 34 857-21L787-199C927-214 986-248 970-333C952-420 850-460 697-460L671-638C987-638 1184-513 1214-324C1240-179 1153-102 1030-83L1052-25C1492 5 1824 309 1941 680L1568 680C1480 441 1252 305 995 305C676 305 487 543 562 1002C640 1474 931 1743 1276 1743C1516 1743 1680 1602 1682 1357Z"  horiz-adv-x="2094" vert-adv-y="2816"  />

      
      <glyph glyph-name="uni0106" unicode="&#x0106;" d="M2050 1357C2061 1812 1748 2076 1285 2076C760 2076 306 1699 197 1046C87 374 428-28 978-28C1455-28 1818 289 1941 680L1568 680C1480 441 1252 305 995 305C676 305 487 543 562 1002C640 1474 931 1743 1276 1743C1516 1743 1680 1602 1682 1357ZM1199 2250L1469 2250L1852 2707L1498 2707Z"  horiz-adv-x="2094" vert-adv-y="2816"  />

      
      <glyph glyph-name="uni0108" unicode="&#x0108;" d="M2050 1357C2061 1812 1748 2076 1285 2076C760 2076 306 1699 197 1046C87 374 428-28 978-28C1455-28 1818 289 1941 680L1568 680C1480 441 1252 305 995 305C676 305 487 543 562 1002C640 1474 931 1743 1276 1743C1516 1743 1680 1602 1682 1357ZM1538 2232L1854 2232L1856 2246L1548 2678L1265 2678L816 2246L814 2232L1131 2232L1376 2488Z"  horiz-adv-x="2094" vert-adv-y="2816"  />

      
      <glyph glyph-name="uni010A" unicode="&#x010A;" d="M2050 1357C2061 1812 1748 2076 1285 2076C760 2076 306 1699 197 1046C87 374 428-28 978-28C1455-28 1818 289 1941 680L1568 680C1480 441 1252 305 995 305C676 305 487 543 562 1002C640 1474 931 1743 1276 1743C1516 1743 1680 1602 1682 1357ZM1356 2266C1471 2266 1573 2354 1581 2462C1590 2571 1504 2659 1389 2659C1273 2659 1172 2571 1162 2462C1153 2354 1241 2266 1356 2266Z"  horiz-adv-x="2094" vert-adv-y="2816"  />

      
      <glyph glyph-name="uni010C" unicode="&#x010C;" d="M2050 1357C2061 1812 1748 2076 1285 2076C760 2076 306 1699 197 1046C87 374 428-28 978-28C1455-28 1818 289 1941 680L1568 680C1480 441 1252 305 995 305C676 305 487 543 562 1002C640 1474 931 1743 1276 1743C1516 1743 1680 1602 1682 1357ZM1203 2678L887 2678L885 2664L1193 2232L1476 2232L1925 2664L1927 2678L1610 2678L1365 2422Z"  horiz-adv-x="2094" vert-adv-y="2816"  />

      
      <glyph glyph-name="uni1E08" unicode="&#x1E08;" d="M2050 1357C2061 1812 1748 2076 1285 2076C760 2076 306 1699 197 1046C95 425 379 34 857-21L787-199C927-214 986-248 970-333C952-420 850-460 697-460L671-638C987-638 1184-513 1214-324C1240-179 1153-102 1030-83L1052-25C1492 5 1824 309 1941 680L1568 680C1480 441 1252 305 995 305C676 305 487 543 562 1002C640 1474 931 1743 1276 1743C1516 1743 1680 1602 1682 1357ZM1199 2250L1469 2250L1852 2707L1498 2707Z"  horiz-adv-x="2094" vert-adv-y="2816"  />

      
      <glyph glyph-name="uni023B" unicode="&#x023B;" d="M329-260L579-260L713 7C794-16 883-28 978-28C1455-28 1818 289 1941 680L1568 680C1480 441 1252 305 995 305C950 305 908 310 869 319L1542 1664C1629 1598 1681 1494 1682 1357L2050 1357C2057 1655 1925 1871 1703 1985L1865 2308L1614 2308L1489 2057C1425 2070 1357 2076 1285 2076C760 2076 306 1699 197 1046C123 597 252 268 509 100ZM673 428C564 542 518 735 562 1002C640 1474 931 1743 1276 1743C1294 1743 1312 1742 1330 1741Z"  horiz-adv-x="2093" vert-adv-y="2816"  />

      
      <glyph glyph-name="uni0186" unicode="&#x0186;" d="M128 691C117 236 430-28 893-28C1418-28 1872 349 1981 1002C2091 1674 1750 2076 1200 2076C723 2076 360 1759 237 1368L610 1368C698 1607 926 1743 1183 1743C1502 1743 1691 1505 1616 1046C1538 574 1247 305 902 305C662 305 498 446 496 691Z"  horiz-adv-x="2094" vert-adv-y="2816"  />

      
      <glyph glyph-name="uni03F9" unicode="&#x03F9;" d="M2050 1357C2061 1812 1748 2076 1285 2076C760 2076 306 1699 197 1046C87 374 428-28 978-28C1455-28 1818 289 1941 680L1568 680C1480 441 1252 305 995 305C676 305 487 543 562 1002C640 1474 931 1743 1276 1743C1516 1743 1680 1602 1682 1357Z"  horiz-adv-x="2094" vert-adv-y="2816"  />

      
      <glyph glyph-name="uni44" unicode="&#x44;" d="M778 0C1402 0 1824 375 1928 1006C2036 1653 1722 2048 1112 2048L414 2048L74 0ZM498 321L732 1727L1057 1727C1473 1727 1645 1506 1567 1047C1488 566 1223 321 797 321Z"  horiz-adv-x="2040" vert-adv-y="2816"  />

      
      <glyph glyph-name="uni018A" unicode="&#x018A;" d="M214 1381L548 1381L565 1486C584 1610 634 1727 798 1727L899 1727L612 0L1316 0C1940 0 2362 375 2466 1006C2574 1653 2260 2048 1650 2048L849 2048C519 2048 286 1850 242 1560ZM1036 321L1270 1727L1595 1727C2011 1727 2183 1506 2105 1047C2026 566 1761 321 1335 321Z"  horiz-adv-x="2578" vert-adv-y="2816"  />

      
      <glyph glyph-name="uni010E" unicode="&#x010E;" d="M778 0C1402 0 1824 375 1928 1006C2036 1653 1722 2048 1112 2048L414 2048L74 0ZM498 321L732 1727L1057 1727C1473 1727 1645 1506 1567 1047C1488 566 1223 321 797 321ZM1102 2678L786 2678L784 2664L1092 2232L1375 2232L1824 2664L1826 2678L1509 2678L1264 2422Z"  horiz-adv-x="2040" vert-adv-y="2816"  />

      
      <glyph glyph-name="uni1E0A" unicode="&#x1E0A;" d="M778 0C1402 0 1824 375 1928 1006C2036 1653 1722 2048 1112 2048L414 2048L74 0ZM498 321L732 1727L1057 1727C1473 1727 1645 1506 1567 1047C1488 566 1223 321 797 321ZM1254 2266C1369 2266 1471 2354 1479 2462C1488 2571 1402 2659 1287 2659C1171 2659 1070 2571 1060 2462C1051 2354 1139 2266 1254 2266Z"  horiz-adv-x="2040" vert-adv-y="2816"  />

      
      <glyph glyph-name="uni1E0C" unicode="&#x1E0C;" d="M778 0C1402 0 1824 375 1928 1006C2036 1653 1722 2048 1112 2048L414 2048L74 0ZM498 321L732 1727L1057 1727C1473 1727 1645 1506 1567 1047C1488 566 1223 321 797 321ZM607-550C722-550 824-462 832-354C841-245 755-157 640-157C524-157 423-245 413-354C404-462 492-550 607-550Z"  horiz-adv-x="2040" vert-adv-y="2816"  />

      
      <glyph glyph-name="uni1E0E" unicode="&#x1E0E;" d="M778 0C1402 0 1824 375 1928 1006C2036 1653 1722 2048 1112 2048L414 2048L74 0ZM498 321L732 1727L1057 1727C1473 1727 1645 1506 1567 1047C1488 566 1223 321 797 321ZM1120-254L156-254L121-475L1084-475Z"  horiz-adv-x="2040" vert-adv-y="2816"  />

      
      <glyph glyph-name="uni1E10" unicode="&#x1E10;" d="M778 0C1402 0 1824 375 1928 1006C2036 1653 1722 2048 1112 2048L414 2048L74 0ZM498 321L732 1727L1057 1727C1473 1727 1645 1506 1567 1047C1488 566 1223 321 797 321ZM280-664L541-664L828-162L484-162Z"  horiz-adv-x="2040" vert-adv-y="2816"  />

      
      <glyph glyph-name="uni1E12" unicode="&#x1E12;" d="M778 0C1402 0 1824 375 1928 1006C2036 1653 1722 2048 1112 2048L414 2048L74 0ZM498 321L732 1727L1057 1727C1473 1727 1645 1506 1567 1047C1488 566 1223 321 797 321ZM791-574L1107-574L1109-560L801-128L518-128L69-560L67-574L384-574L629-318Z"  horiz-adv-x="2040" vert-adv-y="2816"  />

      
      <glyph glyph-name="uni0189" unicode="&#x0189;" d="M778 0C1402 0 1824 375 1928 1006C2036 1653 1722 2048 1112 2048L414 2048L271 1187L5 1187L-35 958L233 958L74 0ZM642 1187L732 1727L1057 1727C1473 1727 1645 1506 1567 1047C1488 566 1223 321 797 321L498 321L604 958L924 958L964 1187Z"  horiz-adv-x="2040" vert-adv-y="2816"  />

      
      <glyph glyph-name="uni01F2" unicode="&#x01F2;" d="M778 0C1402 0 1824 375 1928 1006C2036 1653 1722 2048 1112 2048L414 2048L74 0ZM498 321L732 1727L1057 1727C1473 1727 1645 1506 1567 1047C1488 566 1223 321 797 321ZM2079 0L3342 0L3391 300L2611 300L2615 313L3530 1289L3570 1536L2362 1536L2311 1236L3077 1236L3073 1223L2118 230Z"  horiz-adv-x="3625" vert-adv-y="2816"  />

      
      <glyph glyph-name="uni01C5" unicode="&#x01C5;" d="M778 0C1402 0 1824 375 1928 1006C2036 1653 1722 2048 1112 2048L414 2048L74 0ZM498 321L732 1727L1057 1727C1473 1727 1645 1506 1567 1047C1488 566 1223 321 797 321ZM2079 0L3342 0L3391 300L2611 300L2615 313L3530 1289L3570 1536L2362 1536L2311 1236L3077 1236L3073 1223L2118 230ZM2855 2166L2539 2166L2537 2152L2845 1720L3128 1720L3577 2152L3579 2166L3262 2166L3017 1910Z"  horiz-adv-x="3625" vert-adv-y="2816"  />

      
      <glyph glyph-name="uni45" unicode="&#x45;" d="M74 0L1414 0L1466 311L497 311L589 870L1481 870L1533 1181L641 1181L733 1737L1694 1737L1746 2048L414 2048Z"  horiz-adv-x="1711" vert-adv-y="2816"  />

      
      <glyph glyph-name="unic8" unicode="&#xc8;" d="M74 0L1414 0L1466 311L497 311L589 870L1481 870L1533 1181L641 1181L733 1737L1694 1737L1746 2048L414 2048ZM984 2250L1255 2250L1108 2707L754 2707Z"  horiz-adv-x="1711" vert-adv-y="2816"  />

      
      <glyph glyph-name="unic9" unicode="&#xc9;" d="M74 0L1414 0L1466 311L497 311L589 870L1481 870L1533 1181L641 1181L733 1737L1694 1737L1746 2048L414 2048ZM977 2250L1247 2250L1630 2707L1276 2707Z"  horiz-adv-x="1711" vert-adv-y="2816"  />

      
      <glyph glyph-name="unica" unicode="&#xca;" d="M74 0L1414 0L1466 311L497 311L589 870L1481 870L1533 1181L641 1181L733 1737L1694 1737L1746 2048L414 2048ZM1317 2232L1633 2232L1635 2246L1327 2678L1044 2678L595 2246L593 2232L910 2232L1155 2488Z"  horiz-adv-x="1711" vert-adv-y="2816"  />

      
      <glyph glyph-name="unicb" unicode="&#xcb;" d="M74 0L1414 0L1466 311L497 311L589 870L1481 870L1533 1181L641 1181L733 1737L1694 1737L1746 2048L414 2048ZM1441 2274C1541 2274 1627 2350 1641 2440C1660 2558 1581 2651 1462 2651C1369 2651 1279 2580 1262 2485C1243 2370 1328 2274 1441 2274ZM841 2274C941 2274 1027 2350 1041 2440C1060 2558 981 2651 862 2651C769 2651 677 2580 662 2485C645 2372 728 2274 841 2274Z"  horiz-adv-x="1711" vert-adv-y="2816"  />

      
      <glyph glyph-name="uni0112" unicode="&#x0112;" d="M74 0L1414 0L1466 311L497 311L589 870L1481 870L1533 1181L641 1181L733 1737L1694 1737L1746 2048L414 2048ZM1648 2560L684 2560L649 2339L1612 2339Z"  horiz-adv-x="1711" vert-adv-y="2816"  />

      
      <glyph glyph-name="uni0114" unicode="&#x0114;" d="M74 0L1414 0L1466 311L497 311L589 870L1481 870L1533 1181L641 1181L733 1737L1694 1737L1746 2048L414 2048ZM1367 2576C1350 2478 1281 2391 1139 2391C996 2391 956 2480 973 2576L703 2576C664 2342 818 2184 1104 2184C1392 2184 1599 2342 1638 2576Z"  horiz-adv-x="1711" vert-adv-y="2816"  />

      
      <glyph glyph-name="uni0116" unicode="&#x0116;" d="M74 0L1414 0L1466 311L497 311L589 870L1481 870L1533 1181L641 1181L733 1737L1694 1737L1746 2048L414 2048ZM1134 2266C1249 2266 1351 2354 1359 2462C1368 2571 1282 2659 1167 2659C1051 2659 950 2571 940 2462C931 2354 1019 2266 1134 2266Z"  horiz-adv-x="1711" vert-adv-y="2816"  />

      
      <glyph glyph-name="uni0118" unicode="&#x0118;" d="M74 0L1014 0C907-92 853-209 850-318C842-489 951-582 1124-582C1224-582 1307-550 1359-522L1356-318C1327-329 1287-346 1237-346C1168-346 1143-310 1156-246C1172-142 1281-69 1413 0L1414 0L1466 311L497 311L589 870L1481 870L1533 1181L641 1181L733 1737L1694 1737L1746 2048L414 2048Z"  horiz-adv-x="1711" vert-adv-y="2816"  />

      
      <glyph glyph-name="uni011A" unicode="&#x011A;" d="M74 0L1414 0L1466 311L497 311L589 870L1481 870L1533 1181L641 1181L733 1737L1694 1737L1746 2048L414 2048ZM982 2678L666 2678L664 2664L972 2232L1255 2232L1704 2664L1706 2678L1389 2678L1144 2422Z"  horiz-adv-x="1711" vert-adv-y="2816"  />

      
      <glyph glyph-name="uni0204" unicode="&#x0204;" d="M74 0L1414 0L1466 311L497 311L589 870L1481 870L1533 1181L641 1181L733 1737L1694 1737L1746 2048L414 2048ZM756 2250L1026 2250L879 2707L514 2707ZM1227 2250L1492 2250L1437 2707L1079 2707Z"  horiz-adv-x="1711" vert-adv-y="2816"  />

      
      <glyph glyph-name="uni0206" unicode="&#x0206;" d="M74 0L1414 0L1466 311L497 311L589 870L1481 870L1533 1181L641 1181L733 1737L1694 1737L1746 2048L414 2048ZM656 2297L927 2297C940 2393 1010 2483 1155 2483C1295 2483 1335 2396 1321 2297L1592 2297C1631 2531 1476 2698 1189 2698C900 2698 694 2531 656 2297Z"  horiz-adv-x="1711" vert-adv-y="2816"  />

      
      <glyph glyph-name="uni0228" unicode="&#x0228;" d="M74 0L633 0L557-193C697-208 756-242 740-327C722-414 620-454 467-454L441-632C757-632 954-507 984-318C1010-173 923-96 800-77L829 0L1414 0L1466 311L497 311L589 870L1481 870L1533 1181L641 1181L733 1737L1694 1737L1746 2048L414 2048Z"  horiz-adv-x="1711" vert-adv-y="2816"  />

      
      <glyph glyph-name="uni1E14" unicode="&#x1E14;" d="M74 0L1414 0L1466 311L497 311L589 870L1481 870L1533 1181L641 1181L733 1737L1694 1737L1746 2048L414 2048ZM1638 2510L674 2510L639 2289L1602 2289ZM1053 2669L1348 2669L1117 3006L766 3006Z"  horiz-adv-x="1711" vert-adv-y="2816"  />

      
      <glyph glyph-name="uni1E16" unicode="&#x1E16;" d="M74 0L1414 0L1466 311L497 311L589 870L1481 870L1533 1181L641 1181L733 1737L1694 1737L1746 2048L414 2048ZM1632 2510L668 2510L633 2289L1596 2289ZM1017 2669L1312 2669L1711 3006L1360 3006Z"  horiz-adv-x="1711" vert-adv-y="2816"  />

      
      <glyph glyph-name="uni1E18" unicode="&#x1E18;" d="M74 0L1414 0L1466 311L497 311L589 870L1481 870L1533 1181L641 1181L733 1737L1694 1737L1746 2048L414 2048ZM840-574L1156-574L1158-560L850-128L567-128L118-560L116-574L433-574L678-318Z"  horiz-adv-x="1711" vert-adv-y="2816"  />

      
      <glyph glyph-name="uni1E1A" unicode="&#x1E1A;" d="M74 0L1414 0L1466 311L497 311L589 870L1481 870L1533 1181L641 1181L733 1737L1694 1737L1746 2048L414 2048ZM398-535C414-444 474-383 545-383C678-383 693-525 887-525C1065-524 1228-387 1268-148L1055-139C1041-228 982-292 906-292C781-292 735-150 560-150C382-150 220-292 181-530Z"  horiz-adv-x="1711" vert-adv-y="2816"  />

      
      <glyph glyph-name="uni1E1C" unicode="&#x1E1C;" d="M74 0L633 0L557-193C697-208 756-242 740-327C722-414 620-454 467-454L441-632C757-632 954-507 984-318C1010-173 923-96 800-77L829 0L1414 0L1466 311L497 311L589 870L1481 870L1533 1181L641 1181L733 1737L1694 1737L1746 2048L414 2048ZM1367 2576C1350 2478 1281 2391 1139 2391C996 2391 956 2480 973 2576L703 2576C664 2342 818 2184 1104 2184C1392 2184 1599 2342 1638 2576Z"  horiz-adv-x="1711" vert-adv-y="2816"  />

      
      <glyph glyph-name="uni1EB8" unicode="&#x1EB8;" d="M74 0L1414 0L1466 311L497 311L589 870L1481 870L1533 1181L641 1181L733 1737L1694 1737L1746 2048L414 2048ZM656-550C771-550 873-462 881-354C890-245 804-157 689-157C573-157 472-245 462-354C453-462 541-550 656-550Z"  horiz-adv-x="1711" vert-adv-y="2816"  />

      
      <glyph glyph-name="uni1EBA" unicode="&#x1EBA;" d="M74 0L1414 0L1466 311L497 311L589 870L1481 870L1533 1181L641 1181L733 1737L1694 1737L1746 2048L414 2048ZM1258 2264L1272 2356C1383 2372 1496 2429 1518 2556C1544 2722 1388 2824 1059 2824L1018 2645C1134 2645 1220 2621 1207 2549C1199 2493 1140 2462 999 2456L982 2264Z"  horiz-adv-x="1711" vert-adv-y="2816"  />

      
      <glyph glyph-name="uni1EBC" unicode="&#x1EBC;" d="M74 0L1414 0L1466 311L497 311L589 870L1481 870L1533 1181L641 1181L733 1737L1694 1737L1746 2048L414 2048ZM821 2235C837 2326 897 2387 968 2387C1101 2387 1116 2245 1310 2245C1488 2246 1651 2383 1691 2622L1478 2631C1464 2542 1405 2478 1329 2478C1204 2478 1158 2620 983 2620C805 2620 643 2478 604 2240Z"  horiz-adv-x="1711" vert-adv-y="2816"  />

      
      <glyph glyph-name="uni1EBE" unicode="&#x1EBE;" d="M74 0L1414 0L1466 311L497 311L589 870L1481 870L1533 1181L641 1181L733 1737L1694 1737L1746 2048L414 2048ZM593 2219L895 2219L1142 2403L1330 2219L1631 2219L1280 2548L1053 2548ZM1558 2419L1788 2419L2159 2788L1841 2788Z"  horiz-adv-x="1711" vert-adv-y="2816"  />

      
      <glyph glyph-name="uni1EC0" unicode="&#x1EC0;" d="M74 0L1414 0L1466 311L497 311L589 870L1481 870L1533 1181L641 1181L733 1737L1694 1737L1746 2048L414 2048ZM1276 2547L1050 2547L594 2218L893 2218L1143 2402L1328 2218L1629 2218ZM573 2788L256 2788L506 2418L732 2418Z"  horiz-adv-x="1711" vert-adv-y="2816"  />

      
      <glyph glyph-name="uni1EC2" unicode="&#x1EC2;" d="M74 0L1414 0L1466 311L497 311L589 870L1481 870L1533 1181L641 1181L733 1737L1694 1737L1746 2048L414 2048ZM1289 2536L1034 2536L589 2207L868 2207L1139 2408L1345 2207L1624 2207ZM1728 2388L1740 2464C1830 2478 1928 2527 1946 2635C1970 2775 1848 2860 1587 2860L1550 2709C1652 2709 1724 2690 1715 2627C1706 2577 1650 2556 1536 2550L1524 2388Z"  horiz-adv-x="1711" vert-adv-y="2816"  />

      
      <glyph glyph-name="uni1EC4" unicode="&#x1EC4;" d="M74 0L1414 0L1466 311L497 311L589 870L1481 870L1533 1181L641 1181L733 1737L1694 1737L1746 2048L414 2048ZM1263 2512L1047 2512L586 2195L868 2195L1132 2379L1343 2195L1621 2195ZM1441 2856C1433 2807 1384 2754 1338 2754C1238 2754 1167 2841 1062 2841C942 2841 842 2731 826 2626L952 2590C960 2639 1007 2687 1056 2687C1158 2687 1202 2595 1332 2595C1451 2595 1551 2703 1570 2811Z"  horiz-adv-x="1711" vert-adv-y="2816"  />

      
      <glyph glyph-name="uni1EC6" unicode="&#x1EC6;" d="M74 0L1414 0L1466 311L497 311L589 870L1481 870L1533 1181L641 1181L733 1737L1694 1737L1746 2048L414 2048ZM1317 2232L1633 2232L1635 2246L1327 2678L1044 2678L595 2246L593 2232L910 2232L1155 2488ZM656-550C771-550 873-462 881-354C890-245 804-157 689-157C573-157 472-245 462-354C453-462 541-550 656-550Z"  horiz-adv-x="1711" vert-adv-y="2816"  />

      
      <glyph glyph-name="uni0246" unicode="&#x0246;" d="M1668 2308L1440 2308L1322 2048L414 2048L74 0L390 0L272-260L500-260L618 0L1414 0L1466 311L760 311L1014 870L1481 870L1533 1181L1155 1181L1408 1737L1694 1737L1746 2048L1550 2048ZM1180 1737L927 1181L641 1181L733 1737ZM786 870L532 311L497 311L589 870Z"  horiz-adv-x="1711" vert-adv-y="2816"  />

      
      <glyph glyph-name="uni018E" unicode="&#x018E;" d="M1721 2048L381 2048L329 1737L1298 1737L1206 1178L314 1178L262 867L1154 867L1062 311L101 311L49 0L1381 0Z"  horiz-adv-x="1711" vert-adv-y="2816"  />

      
      <glyph glyph-name="uni0395" unicode="&#x0395;" d="M74 0L1414 0L1466 311L497 311L589 870L1481 870L1533 1181L641 1181L733 1737L1694 1737L1746 2048L414 2048Z"  horiz-adv-x="1711" vert-adv-y="2816"  />

      
      <glyph glyph-name="uni0388" unicode="&#x0388;" d="M484 0L1824 0L1876 311L907 311L999 870L1891 870L1943 1181L1051 1181L1143 1737L2104 1737L2156 2048L824 2048ZM280 1716L502 1716L791 2189L452 2189Z"  horiz-adv-x="2121" vert-adv-y="2816"  />

      
      <glyph glyph-name="uni1F18" unicode="&#x1F18;" d="M491 0L1831 0L1883 311L914 311L1006 870L1898 870L1950 1181L1058 1181L1150 1737L2111 1737L2163 2048L831 2048ZM676 2048L433 2048L416 1931C397 1815 353 1730 260 1663L357 1552C512 1624 629 1755 657 1923Z"  horiz-adv-x="2128" vert-adv-y="2816"  />

      
      <glyph glyph-name="uni1F19" unicode="&#x1F19;" d="M467 0L1807 0L1859 311L890 311L982 870L1874 870L1926 1181L1034 1181L1126 1737L2087 1737L2139 2048L807 2048ZM309 1923C284 1755 357 1624 486 1552L621 1663C550 1731 538 1823 556 1931L575 2048L331 2048Z"  horiz-adv-x="2104" vert-adv-y="2816"  />

      
      <glyph glyph-name="uni1F1A" unicode="&#x1F1A;" d="M996 0L2336 0L2388 311L1419 311L1511 870L2403 870L2455 1181L1563 1181L1655 1737L2616 1737L2668 2048L1336 2048ZM698 2053L443 2053L427 1949C408 1819 352 1725 262 1641L359 1557C535 1645 654 1781 682 1941ZM1143 1609L1056 2053L762 2053L758 2025L1008 1589L1139 1589Z"  horiz-adv-x="2633" vert-adv-y="2816"  />

      
      <glyph glyph-name="uni1F1B" unicode="&#x1F1B;" d="M900 0L2240 0L2292 311L1323 311L1415 870L2307 870L2359 1181L1467 1181L1559 1737L2520 1737L2572 2048L1240 2048ZM305 1923C278 1755 351 1624 485 1552L620 1663C544 1731 534 1823 554 1931L573 2048L326 2048ZM1059 1610L976 2048L678 2048L674 2020L924 1582L1055 1582Z"  horiz-adv-x="2538" vert-adv-y="2816"  />

      
      <glyph glyph-name="uni1F1C" unicode="&#x1F1C;" d="M931 0L2271 0L2323 311L1354 311L1446 870L2338 870L2390 1181L1498 1181L1590 1737L2551 1737L2603 2048L1271 2048ZM689 2048L443 2048L423 1931C403 1823 362 1731 269 1663L363 1552C520 1624 641 1757 667 1923ZM647 1582L779 1582L1173 2020L1177 2048L883 2048L651 1610Z"  horiz-adv-x="2568" vert-adv-y="2816"  />

      
      <glyph glyph-name="uni1F1D" unicode="&#x1F1D;" d="M974 0L2314 0L2366 311L1397 311L1489 870L2381 870L2433 1181L1541 1181L1633 1737L2594 1737L2646 2048L1314 2048ZM486 1552L622 1663C552 1730 538 1815 557 1931L576 2048L331 2048L310 1923C283 1752 360 1622 486 1552ZM678 1582L806 1582L1202 2020L1206 2048L908 2048L682 1610Z"  horiz-adv-x="2611" vert-adv-y="2816"  />

      
      <glyph glyph-name="uni1FC8" unicode="&#x1FC8;" d="M596 0L1936 0L1988 311L1019 311L1111 870L2003 870L2055 1181L1163 1181L1255 1737L2216 1737L2268 2048L936 2048ZM580 1580L714 1580L714 1614L628 2048L330 2048L330 2020Z"  horiz-adv-x="2234" vert-adv-y="2816"  />

      
      <glyph glyph-name="uni1FC9" unicode="&#x1FC9;" d="M531 0L1871 0L1923 311L954 311L1046 870L1938 870L1990 1181L1098 1181L1190 1737L2151 1737L2203 2048L871 2048ZM338 1728L522 1728L919 2168L923 2196L572 2196L344 1762Z"  horiz-adv-x="2168" vert-adv-y="2816"  />

      
      <glyph glyph-name="uni0415" unicode="&#x0415;" d="M74 0L1414 0L1466 311L497 311L589 870L1481 870L1533 1181L641 1181L733 1737L1694 1737L1746 2048L414 2048Z"  horiz-adv-x="1711" vert-adv-y="2816"  />

      
      <glyph glyph-name="uni0400" unicode="&#x0400;" d="M74 0L1414 0L1466 311L497 311L589 870L1481 870L1533 1181L641 1181L733 1737L1694 1737L1746 2048L414 2048ZM984 2250L1255 2250L1108 2707L754 2707Z"  horiz-adv-x="1711" vert-adv-y="2816"  />

      
      <glyph glyph-name="uni0401" unicode="&#x0401;" d="M74 0L1414 0L1466 311L497 311L589 870L1481 870L1533 1181L641 1181L733 1737L1694 1737L1746 2048L414 2048ZM1442 2274C1542 2274 1628 2350 1642 2440C1661 2558 1582 2651 1463 2651C1370 2651 1280 2580 1263 2485C1244 2370 1329 2274 1442 2274ZM842 2274C942 2274 1028 2350 1042 2440C1061 2558 982 2651 863 2651C770 2651 678 2580 663 2485C646 2372 729 2274 842 2274Z"  horiz-adv-x="1711" vert-adv-y="2816"  />

      
      <glyph glyph-name="uni04D6" unicode="&#x04D6;" d="M74 0L1414 0L1466 311L497 311L589 870L1481 870L1533 1181L641 1181L733 1737L1694 1737L1746 2048L414 2048ZM1367 2576C1350 2478 1281 2391 1139 2391C996 2391 956 2480 973 2576L703 2576C664 2342 818 2184 1104 2184C1392 2184 1599 2342 1638 2576Z"  horiz-adv-x="1711" vert-adv-y="2816"  />

      
      <glyph glyph-name="uni46" unicode="&#x46;" d="M74 0L445 0L589 870L1440 870L1492 1181L641 1181L733 1737L1674 1737L1726 2048L414 2048Z"  horiz-adv-x="1649" vert-adv-y="2816"  />

      
      <glyph glyph-name="uni0191" unicode="&#x0191;" d="M118 0L101-115C79-252-29-285-138-285C-170-285-204-284-225-280L-271-566C-228-576-160-576-122-576C160-576 410-470 470-118L490 0L634 870L1485 870L1537 1181L686 1181L778 1737L1719 1737L1771 2048L459 2048L119 0Z"  horiz-adv-x="1694" vert-adv-y="2816"  />

      
      <glyph glyph-name="uni1E1E" unicode="&#x1E1E;" d="M74 0L445 0L589 870L1440 870L1492 1181L641 1181L733 1737L1674 1737L1726 2048L414 2048ZM1141 2266C1256 2266 1358 2354 1366 2462C1375 2571 1289 2659 1174 2659C1058 2659 957 2571 947 2462C938 2354 1026 2266 1141 2266Z"  horiz-adv-x="1649" vert-adv-y="2816"  />

      
      <glyph glyph-name="uni2132" unicode="&#x2132;" d="M1659 2048L1288 2048L1144 1178L293 1178L241 867L1092 867L1000 311L59 311L7 0L1319 0Z"  horiz-adv-x="1649" vert-adv-y="2816"  />

      
      <glyph glyph-name="uni47" unicode="&#x47;" d="M1676 1394L2054 1394C2060 1796 1757 2076 1305 2076C769 2076 301 1682 194 1022C86 374 402-28 967-28C1475-28 1892 298 1978 826L2020 1072L1189 1072L1139 782L1612 782C1560 490 1317 305 1009 305C666 305 490 562 567 1026C643 1487 945 1743 1276 1743C1523 1743 1648 1610 1676 1394Z"  horiz-adv-x="2126" vert-adv-y="2816"  />

      
      <glyph glyph-name="uni01E4" unicode="&#x01E4;" d="M2059 650L1935 650C1953 706 1968 765 1978 826L2020 1072L1189 1072L1139 782L1612 782C1603 735 1590 691 1573 650L1118 650L1091 480L1458 480C1348 369 1190 305 1009 305C666 305 490 562 567 1026C643 1487 945 1743 1276 1743C1523 1743 1648 1610 1676 1394L2054 1394C2060 1796 1757 2076 1305 2076C769 2076 301 1682 194 1022C86 374 402-28 967-28C1352-28 1685 159 1861 480L2032 480Z"  horiz-adv-x="2126" vert-adv-y="2816"  />

      
      <glyph glyph-name="uni0193" unicode="&#x0193;" d="M2054 1394L2101 1674C2129 1838 2250 1877 2386 1877C2422 1877 2456 1871 2487 1867L2535 2160C2481 2175 2421 2180 2360 2180C2137 2180 1939 2086 1822 1911C1693 2016 1515 2076 1305 2076C769 2076 301 1682 194 1022C86 374 402-28 967-28C1475-28 1892 298 1978 826L2020 1072L1189 1072L1139 782L1612 782C1560 490 1317 305 1009 305C666 305 490 562 567 1026C643 1487 945 1743 1276 1743C1522 1743 1647 1611 1676 1397L1675 1394Z"  horiz-adv-x="2293" vert-adv-y="2816"  />

      
      <glyph glyph-name="uni011C" unicode="&#x011C;" d="M1676 1394L2054 1394C2060 1796 1757 2076 1305 2076C769 2076 301 1682 194 1022C86 374 402-28 967-28C1475-28 1892 298 1978 826L2020 1072L1189 1072L1139 782L1612 782C1560 490 1317 305 1009 305C666 305 490 562 567 1026C643 1487 945 1743 1276 1743C1523 1743 1648 1610 1676 1394ZM1529 2232L1845 2232L1847 2246L1539 2678L1256 2678L807 2246L805 2232L1122 2232L1367 2488Z"  horiz-adv-x="2126" vert-adv-y="2816"  />

      
      <glyph glyph-name="uni011E" unicode="&#x011E;" d="M1676 1394L2054 1394C2060 1796 1757 2076 1305 2076C769 2076 301 1682 194 1022C86 374 402-28 967-28C1475-28 1892 298 1978 826L2020 1072L1189 1072L1139 782L1612 782C1560 490 1317 305 1009 305C666 305 490 562 567 1026C643 1487 945 1743 1276 1743C1523 1743 1648 1610 1676 1394ZM1579 2576C1562 2478 1493 2391 1351 2391C1208 2391 1168 2480 1185 2576L915 2576C876 2342 1030 2184 1316 2184C1604 2184 1811 2342 1850 2576Z"  horiz-adv-x="2126" vert-adv-y="2816"  />

      
      <glyph glyph-name="uni0120" unicode="&#x0120;" d="M1676 1394L2054 1394C2060 1796 1757 2076 1305 2076C769 2076 301 1682 194 1022C86 374 402-28 967-28C1475-28 1892 298 1978 826L2020 1072L1189 1072L1139 782L1612 782C1560 490 1317 305 1009 305C666 305 490 562 567 1026C643 1487 945 1743 1276 1743C1523 1743 1648 1610 1676 1394ZM1346 2266C1461 2266 1563 2354 1571 2462C1580 2571 1494 2659 1379 2659C1263 2659 1162 2571 1152 2462C1143 2354 1231 2266 1346 2266Z"  horiz-adv-x="2126" vert-adv-y="2816"  />

      
      <glyph glyph-name="uni0122" unicode="&#x0122;" d="M1676 1394L2054 1394C2060 1796 1757 2076 1305 2076C769 2076 301 1682 194 1022C86 374 402-28 967-28C1475-28 1892 298 1978 826L2020 1072L1189 1072L1139 782L1612 782C1560 490 1317 305 1009 305C666 305 490 562 567 1026C643 1487 945 1743 1276 1743C1523 1743 1648 1610 1676 1394ZM550-661L811-661L1098-159L754-159Z"  horiz-adv-x="2126" vert-adv-y="2816"  />

      
      <glyph glyph-name="uni01E6" unicode="&#x01E6;" d="M1676 1394L2054 1394C2060 1796 1757 2076 1305 2076C769 2076 301 1682 194 1022C86 374 402-28 967-28C1475-28 1892 298 1978 826L2020 1072L1189 1072L1139 782L1612 782C1560 490 1317 305 1009 305C666 305 490 562 567 1026C643 1487 945 1743 1276 1743C1523 1743 1648 1610 1676 1394ZM1194 2678L878 2678L876 2664L1184 2232L1467 2232L1916 2664L1918 2678L1601 2678L1356 2422Z"  horiz-adv-x="2126" vert-adv-y="2816"  />

      
      <glyph glyph-name="uni01F4" unicode="&#x01F4;" d="M1676 1394L2054 1394C2060 1796 1757 2076 1305 2076C769 2076 301 1682 194 1022C86 374 402-28 967-28C1475-28 1892 298 1978 826L2020 1072L1189 1072L1139 782L1612 782C1560 490 1317 305 1009 305C666 305 490 562 567 1026C643 1487 945 1743 1276 1743C1523 1743 1648 1610 1676 1394ZM1189 2250L1459 2250L1842 2707L1488 2707Z"  horiz-adv-x="2126" vert-adv-y="2816"  />

      
      <glyph glyph-name="uni1E20" unicode="&#x1E20;" d="M1676 1394L2054 1394C2060 1796 1757 2076 1305 2076C769 2076 301 1682 194 1022C86 374 402-28 967-28C1475-28 1892 298 1978 826L2020 1072L1189 1072L1139 782L1612 782C1560 490 1317 305 1009 305C666 305 490 562 567 1026C643 1487 945 1743 1276 1743C1523 1743 1648 1610 1676 1394ZM1860 2560L896 2560L861 2339L1824 2339Z"  horiz-adv-x="2126" vert-adv-y="2816"  />

      
      <glyph glyph-name="uniE002" unicode="&#xE002;" d="M968-28C1227-28 1424 68 1597 240L1608 240L1594 0L1860 0L2038 1072L1189 1072L1141 782L1626 782C1569 500 1326 305 1013 305C671 305 490 562 566 1026C643 1487 946 1743 1276 1743C1523 1743 1672 1612 1699 1394L2077 1394C2081 1797 1767 2076 1314 2076C779 2076 302 1682 194 1022C86 374 404-28 968-28Z"  horiz-adv-x="2144" vert-adv-y="2816"  />

      
      <glyph glyph-name="uniE003" unicode="&#xE003;" d="M2079 650L1968 650L2038 1072L1189 1072L1141 782L1626 782C1616 735 1602 691 1583 650L1118 650L1091 480L1464 480C1352 370 1194 305 1013 305C671 305 490 562 566 1026C643 1487 946 1743 1276 1743C1523 1743 1672 1612 1699 1394L2077 1394C2081 1797 1767 2076 1314 2076C779 2076 302 1682 194 1022C86 374 404-28 968-28C1227-28 1424 68 1597 240L1608 240L1594 0L1860 0L1940 480L2052 480Z"  horiz-adv-x="2146" vert-adv-y="2816"  />

      
      <glyph glyph-name="uniE004" unicode="&#xE004;" d="M2076 1394L2123 1674C2151 1838 2272 1877 2409 1877C2444 1877 2479 1871 2510 1867L2558 2160C2504 2175 2444 2180 2382 2180C2158 2180 1958 2084 1842 1906C1709 2014 1526 2076 1313 2076C778 2076 301 1682 193 1022C85 374 403-28 967-28C1226-28 1423 68 1596 240L1607 240L1593 0L1859 0L2037 1072L1188 1072L1140 782L1625 782C1568 500 1325 305 1012 305C670 305 489 562 565 1026C642 1487 945 1743 1275 1743C1522 1743 1671 1612 1698 1394Z"  horiz-adv-x="2291" vert-adv-y="2816"  />

      
      <glyph glyph-name="uniE005" unicode="&#xE005;" d="M968-28C1227-28 1424 68 1597 240L1608 240L1594 0L1860 0L2038 1072L1189 1072L1141 782L1626 782C1569 500 1326 305 1013 305C671 305 490 562 566 1026C643 1487 946 1743 1276 1743C1523 1743 1672 1612 1699 1394L2077 1394C2081 1797 1767 2076 1314 2076C779 2076 302 1682 194 1022C86 374 404-28 968-28ZM1529 2232L1845 2232L1847 2246L1539 2678L1256 2678L807 2246L805 2232L1122 2232L1367 2488Z"  horiz-adv-x="2144" vert-adv-y="2816"  />

      
      <glyph glyph-name="uniE006" unicode="&#xE006;" d="M968-28C1227-28 1424 68 1597 240L1608 240L1594 0L1860 0L2038 1072L1189 1072L1141 782L1626 782C1569 500 1326 305 1013 305C671 305 490 562 566 1026C643 1487 946 1743 1276 1743C1523 1743 1672 1612 1699 1394L2077 1394C2081 1797 1767 2076 1314 2076C779 2076 302 1682 194 1022C86 374 404-28 968-28ZM1579 2576C1562 2478 1493 2391 1351 2391C1208 2391 1168 2480 1185 2576L915 2576C876 2342 1030 2184 1316 2184C1604 2184 1811 2342 1850 2576Z"  horiz-adv-x="2144" vert-adv-y="2816"  />

      
      <glyph glyph-name="uniE007" unicode="&#xE007;" d="M968-28C1227-28 1424 68 1597 240L1608 240L1594 0L1860 0L2038 1072L1189 1072L1141 782L1626 782C1569 500 1326 305 1013 305C671 305 490 562 566 1026C643 1487 946 1743 1276 1743C1523 1743 1672 1612 1699 1394L2077 1394C2081 1797 1767 2076 1314 2076C779 2076 302 1682 194 1022C86 374 404-28 968-28ZM1346 2266C1461 2266 1563 2354 1571 2462C1580 2571 1494 2659 1379 2659C1263 2659 1162 2571 1152 2462C1143 2354 1231 2266 1346 2266Z"  horiz-adv-x="2144" vert-adv-y="2816"  />

      
      <glyph glyph-name="uniE008" unicode="&#xE008;" d="M968-28C1227-28 1424 68 1597 240L1608 240L1594 0L1860 0L2038 1072L1189 1072L1141 782L1626 782C1569 500 1326 305 1013 305C671 305 490 562 566 1026C643 1487 946 1743 1276 1743C1523 1743 1672 1612 1699 1394L2077 1394C2081 1797 1767 2076 1314 2076C779 2076 302 1682 194 1022C86 374 404-28 968-28ZM552-661L813-661L1100-159L756-159Z"  horiz-adv-x="2144" vert-adv-y="2816"  />

      
      <glyph glyph-name="uniE009" unicode="&#xE009;" d="M968-28C1227-28 1424 68 1597 240L1608 240L1594 0L1860 0L2038 1072L1189 1072L1141 782L1626 782C1569 500 1326 305 1013 305C671 305 490 562 566 1026C643 1487 946 1743 1276 1743C1523 1743 1672 1612 1699 1394L2077 1394C2081 1797 1767 2076 1314 2076C779 2076 302 1682 194 1022C86 374 404-28 968-28ZM1194 2678L878 2678L876 2664L1184 2232L1467 2232L1916 2664L1918 2678L1601 2678L1356 2422Z"  horiz-adv-x="2144" vert-adv-y="2816"  />

      
      <glyph glyph-name="uniE00A" unicode="&#xE00A;" d="M968-28C1227-28 1424 68 1597 240L1608 240L1594 0L1860 0L2038 1072L1189 1072L1141 782L1626 782C1569 500 1326 305 1013 305C671 305 490 562 566 1026C643 1487 946 1743 1276 1743C1523 1743 1672 1612 1699 1394L2077 1394C2081 1797 1767 2076 1314 2076C779 2076 302 1682 194 1022C86 374 404-28 968-28ZM1189 2250L1459 2250L1842 2707L1488 2707Z"  horiz-adv-x="2144" vert-adv-y="2816"  />

      
      <glyph glyph-name="uniE00B" unicode="&#xE00B;" d="M968-28C1227-28 1424 68 1597 240L1608 240L1594 0L1860 0L2038 1072L1189 1072L1141 782L1626 782C1569 500 1326 305 1013 305C671 305 490 562 566 1026C643 1487 946 1743 1276 1743C1523 1743 1672 1612 1699 1394L2077 1394C2081 1797 1767 2076 1314 2076C779 2076 302 1682 194 1022C86 374 404-28 968-28ZM1860 2560L896 2560L861 2339L1824 2339Z"  horiz-adv-x="2144" vert-adv-y="2816"  />

      
      <glyph glyph-name="uni48" unicode="&#x48;" d="M74 0L445 0L589 870L1538 870L1394 0L1766 0L2106 2048L1734 2048L1590 1181L641 1181L785 2048L414 2048Z"  horiz-adv-x="2095" vert-adv-y="2816"  />

      
      <glyph glyph-name="uni1E28" unicode="&#x1E28;" d="M74 0L171 0L95-193C235-208 294-242 278-327C260-414 158-454 5-454L-21-632C295-632 492-507 522-318C548-173 461-96 338-77L367 0L445 0L589 870L1538 870L1394 0L1766 0L2106 2048L1734 2048L1590 1181L641 1181L785 2048L414 2048Z"  horiz-adv-x="2095" vert-adv-y="2816"  />

      
      <glyph glyph-name="uni0124" unicode="&#x0124;" d="M74 0L445 0L589 870L1538 870L1394 0L1766 0L2106 2048L1734 2048L1590 1181L641 1181L785 2048L414 2048ZM1501 2234L1817 2234L1819 2248L1511 2680L1228 2680L779 2248L777 2234L1094 2234L1339 2490Z"  horiz-adv-x="2095" vert-adv-y="2816"  />

      
      <glyph glyph-name="uni021E" unicode="&#x021E;" d="M74 0L445 0L589 870L1538 870L1394 0L1766 0L2106 2048L1734 2048L1590 1181L641 1181L785 2048L414 2048ZM1166 2680L850 2680L848 2666L1156 2234L1439 2234L1888 2666L1890 2680L1573 2680L1328 2424Z"  horiz-adv-x="2095" vert-adv-y="2816"  />

      
      <glyph glyph-name="uni1E22" unicode="&#x1E22;" d="M74 0L445 0L589 870L1538 870L1394 0L1766 0L2106 2048L1734 2048L1590 1181L641 1181L785 2048L414 2048ZM1319 2268C1434 2268 1536 2356 1544 2464C1553 2573 1467 2661 1352 2661C1236 2661 1135 2573 1125 2464C1116 2356 1204 2268 1319 2268Z"  horiz-adv-x="2095" vert-adv-y="2816"  />

      
      <glyph glyph-name="uni1E24" unicode="&#x1E24;" d="M74 0L445 0L589 870L1538 870L1394 0L1766 0L2106 2048L1734 2048L1590 1181L641 1181L785 2048L414 2048ZM845-550C960-550 1062-462 1070-354C1079-245 993-157 878-157C762-157 661-245 651-354C642-462 730-550 845-550Z"  horiz-adv-x="2095" vert-adv-y="2816"  />

      
      <glyph glyph-name="uni1E26" unicode="&#x1E26;" d="M74 0L445 0L589 870L1538 870L1394 0L1766 0L2106 2048L1734 2048L1590 1181L641 1181L785 2048L414 2048ZM1626 2276C1726 2276 1812 2352 1826 2442C1845 2560 1766 2653 1647 2653C1554 2653 1464 2582 1447 2487C1428 2372 1513 2276 1626 2276ZM1026 2276C1126 2276 1212 2352 1226 2442C1245 2560 1166 2653 1047 2653C954 2653 862 2582 847 2487C830 2374 913 2276 1026 2276Z"  horiz-adv-x="2095" vert-adv-y="2816"  />

      
      <glyph glyph-name="uni1E2A" unicode="&#x1E2A;" d="M74 0L445 0L589 870L1538 870L1394 0L1766 0L2106 2048L1734 2048L1590 1181L641 1181L785 2048L414 2048ZM1098-119C1080-213 1007-306 866-306C724-306 683-217 702-119L432-119C392-353 548-520 832-520C1120-520 1328-352 1368-119Z"  horiz-adv-x="2095" vert-adv-y="2816"  />

      
      <glyph glyph-name="uni0126" unicode="&#x0126;" d="M2286 1667L2119 1667L2182 2048L1810 2048L1747 1667L798 1667L861 2048L490 2048L427 1667L260 1667L223 1437L389 1437L150 0L521 0L665 870L1614 870L1470 0L1842 0L2081 1437L2250 1437ZM1709 1437L1666 1181L717 1181L760 1437Z"  horiz-adv-x="2250" vert-adv-y="2816"  />

      
      <glyph glyph-name="uni04C7" unicode="&#x04C7;" d="M1394 0L1380-98C1366-245 1228-294 1097-294C1074-294 1024-293 995-286L957-582C977-590 1044-597 1098-597C1563-597 1713-335 1746-126L1766 0L2106 2048L1734 2048L1590 1181L641 1181L785 2048L414 2048L74 0L445 0L589 870L1538 870Z"  horiz-adv-x="2095" vert-adv-y="2816"  />

      
      <glyph glyph-name="uni04A2" unicode="&#x04A2;" d="M74 0L445 0L589 870L1538 870L1394 0L1751 0L1671-494L2025-494L2149 270L1811 270L2106 2048L1734 2048L1590 1181L641 1181L785 2048L414 2048Z"  horiz-adv-x="2323" vert-adv-y="2816"  />

      
      <glyph glyph-name="uni04C9" unicode="&#x04C9;" d="M74 0L445 0L589 870L1538 870L1394 0L1762 0L1757-33C1727-220 1634-347 1545-486L1751-566C1910-422 2042-219 2076-14L2112 207L1800 207L2106 2048L1734 2048L1590 1181L641 1181L785 2048L414 2048Z"  horiz-adv-x="2286" vert-adv-y="2816"  />

      
      <glyph glyph-name="uni04A4" unicode="&#x04A4;" d="M2914 2048L1734 2048L1590 1181L641 1181L785 2048L414 2048L74 0L445 0L589 870L1538 870L1394 0L1766 0L2054 1737L2862 1737Z"  horiz-adv-x="2814" vert-adv-y="2816"  />

      
      <glyph glyph-name="uni01F6" unicode="&#x01F6;" d="M2117-28C2551-28 2877 220 2953 675L3091 1509L2720 1509L2582 675C2538 418 2392 291 2169 291C1946 291 1834 418 1878 675L2106 2048L1734 2048L1590 1181L641 1181L785 2048L414 2048L74 0L445 0L589 870L1538 870L1507 675C1434 225 1677-28 2117-28Z"  horiz-adv-x="3154" vert-adv-y="2816"  />

      
      <glyph glyph-name="uni0397" unicode="&#x0397;" d="M74 0L445 0L589 870L1538 870L1394 0L1766 0L2106 2048L1734 2048L1590 1181L641 1181L785 2048L414 2048Z"  horiz-adv-x="2095" vert-adv-y="2816"  />

      
      <glyph glyph-name="uni0389" unicode="&#x0389;" d="M536 0L907 0L1051 870L2000 870L1856 0L2228 0L2568 2048L2196 2048L2052 1181L1103 1181L1247 2048L876 2048ZM340 1716L562 1716L851 2189L512 2189Z"  horiz-adv-x="2554" vert-adv-y="2816"  />

      
      <glyph glyph-name="uni1F28" unicode="&#x1F28;" d="M544 0L915 0L1059 870L2008 870L1864 0L2236 0L2576 2048L2204 2048L2060 1181L1111 1181L1255 2048L884 2048ZM738 2048L495 2048L478 1931C459 1815 415 1730 322 1663L419 1552C574 1624 691 1755 719 1923Z"  horiz-adv-x="2566" vert-adv-y="2816"  />

      
      <glyph glyph-name="uni1F29" unicode="&#x1F29;" d="M519 0L890 0L1034 870L1983 870L1839 0L2211 0L2551 2048L2179 2048L2035 1181L1086 1181L1230 2048L859 2048ZM369 1923C344 1755 417 1624 546 1552L681 1663C610 1731 598 1823 616 1931L635 2048L391 2048Z"  horiz-adv-x="2540" vert-adv-y="2816"  />

      
      <glyph glyph-name="uni1F2A" unicode="&#x1F2A;" d="M1048 0L1419 0L1563 870L2512 870L2368 0L2740 0L3080 2048L2708 2048L2564 1181L1615 1181L1759 2048L1388 2048ZM758 2053L503 2053L487 1949C468 1819 412 1725 322 1641L419 1557C595 1645 714 1781 742 1941ZM1203 1609L1116 2053L822 2053L818 2025L1068 1589L1199 1589Z"  horiz-adv-x="3069" vert-adv-y="2816"  />

      
      <glyph glyph-name="uni1F2B" unicode="&#x1F2B;" d="M952 0L1323 0L1467 870L2416 870L2272 0L2644 0L2984 2048L2612 2048L2468 1181L1519 1181L1663 2048L1292 2048ZM365 1923C338 1755 411 1624 545 1552L680 1663C604 1731 594 1823 614 1931L633 2048L386 2048ZM1119 1610L1036 2048L738 2048L734 2020L984 1582L1115 1582Z"  horiz-adv-x="2974" vert-adv-y="2816"  />

      
      <glyph glyph-name="uni1F2C" unicode="&#x1F2C;" d="M983 0L1354 0L1498 870L2447 870L2303 0L2675 0L3015 2048L2643 2048L2499 1181L1550 1181L1694 2048L1323 2048ZM749 2048L503 2048L483 1931C463 1823 422 1731 329 1663L423 1552C580 1624 701 1757 727 1923ZM707 1582L839 1582L1233 2020L1237 2048L943 2048L711 1610Z"  horiz-adv-x="3004" vert-adv-y="2816"  />

      
      <glyph glyph-name="uni1F2D" unicode="&#x1F2D;" d="M1026 0L1397 0L1541 870L2490 870L2346 0L2718 0L3058 2048L2686 2048L2542 1181L1593 1181L1737 2048L1366 2048ZM546 1552L682 1663C612 1730 598 1815 617 1931L636 2048L391 2048L370 1923C343 1752 420 1622 546 1552ZM738 1582L866 1582L1262 2020L1266 2048L968 2048L742 1610Z"  horiz-adv-x="3047" vert-adv-y="2816"  />

      
      <glyph glyph-name="uni1F2E" unicode="&#x1F2E;" d="M826 0L1197 0L1341 870L2290 870L2146 0L2518 0L2858 2048L2486 2048L2342 1181L1393 1181L1537 2048L1166 2048ZM1094 2385C1085 2319 1029 2267 973 2267C858 2267 791 2363 668 2363C533 2363 419 2240 396 2108L544 2065C557 2132 606 2185 663 2185C785 2185 822 2090 970 2090C1106 2090 1218 2206 1242 2338ZM920 2020L701 2020L684 1917C671 1836 640 1757 559 1700L659 1610C785 1672 882 1788 903 1915Z"  horiz-adv-x="2847" vert-adv-y="2816"  />

      
      <glyph glyph-name="uni1F2F" unicode="&#x1F2F;" d="M844 0L1215 0L1359 870L2308 870L2164 0L2536 0L2876 2048L2504 2048L2360 1181L1411 1181L1555 2048L1184 2048ZM1094 2385C1085 2319 1029 2267 973 2267C858 2267 791 2363 668 2363C533 2363 419 2240 396 2108L544 2065C557 2132 606 2185 663 2185C785 2185 822 2090 970 2090C1106 2090 1218 2206 1242 2338ZM678 1915C658 1785 716 1671 817 1610L952 1700C889 1757 885 1836 897 1917L915 2020L696 2020Z"  horiz-adv-x="2865" vert-adv-y="2816"  />

      
      <glyph glyph-name="uni1FCA" unicode="&#x1FCA;" d="M648 0L1019 0L1163 870L2112 870L1968 0L2340 0L2680 2048L2308 2048L2164 1181L1215 1181L1359 2048L988 2048ZM640 1580L774 1580L774 1614L688 2048L390 2048L390 2020Z"  horiz-adv-x="2670" vert-adv-y="2816"  />

      
      <glyph glyph-name="uni1FCB" unicode="&#x1FCB;" d="M583 0L954 0L1098 870L2047 870L1903 0L2275 0L2615 2048L2243 2048L2099 1181L1150 1181L1294 2048L923 2048ZM398 1728L582 1728L979 2168L983 2196L632 2196L404 1762Z"  horiz-adv-x="2604" vert-adv-y="2816"  />

      
      <glyph glyph-name="uni041D" unicode="&#x041D;" d="M74 0L445 0L589 870L1538 870L1394 0L1766 0L2106 2048L1734 2048L1590 1181L641 1181L785 2048L414 2048Z"  horiz-adv-x="2095" vert-adv-y="2816"  />

      
      <glyph glyph-name="uni1F98" unicode="&#x1F98;" d="M468 0L839 0L983 870L1932 870L1788 0L2160 0L2500 2048L2128 2048L1984 1181L1035 1181L1179 2048L808 2048ZM1335-680C1389-680 1427-672 1459-662L1486-506C1472-506 1449-510 1423-510C1373-510 1354-484 1366-420L1413-128L1175-128L1126-422C1096-604 1193-680 1335-680ZM662 2048L419 2048L402 1931C383 1815 339 1730 246 1663L343 1552C498 1624 615 1755 643 1923Z"  horiz-adv-x="2490" vert-adv-y="2816"  />

      
      <glyph glyph-name="uni1F99" unicode="&#x1F99;" d="M519 0L890 0L1034 870L1983 870L1839 0L2211 0L2551 2048L2179 2048L2035 1181L1086 1181L1230 2048L859 2048ZM1386-680C1440-680 1478-672 1510-662L1537-506C1523-506 1500-510 1474-510C1424-510 1405-484 1417-420L1464-128L1226-128L1177-422C1147-604 1244-680 1386-680ZM369 1923C344 1755 417 1624 546 1552L681 1663C610 1731 598 1823 616 1931L635 2048L391 2048Z"  horiz-adv-x="2540" vert-adv-y="2816"  />

      
      <glyph glyph-name="uni1F9A" unicode="&#x1F9A;" d="M1048 0L1419 0L1563 870L2512 870L2368 0L2740 0L3080 2048L2708 2048L2564 1181L1615 1181L1759 2048L1388 2048ZM1915-680C1969-680 2007-672 2039-662L2066-506C2052-506 2029-510 2003-510C1953-510 1934-484 1946-420L1993-128L1755-128L1706-422C1676-604 1773-680 1915-680ZM758 2053L503 2053L487 1949C468 1819 412 1725 322 1641L419 1557C595 1645 714 1781 742 1941ZM1203 1609L1116 2053L822 2053L818 2025L1068 1589L1199 1589Z"  horiz-adv-x="3069" vert-adv-y="2816"  />

      
      <glyph glyph-name="uni1F9B" unicode="&#x1F9B;" d="M952 0L1323 0L1467 870L2416 870L2272 0L2644 0L2984 2048L2612 2048L2468 1181L1519 1181L1663 2048L1292 2048ZM1819-680C1873-680 1911-672 1943-662L1970-506C1956-506 1933-510 1907-510C1857-510 1838-484 1850-420L1897-128L1659-128L1610-422C1580-604 1677-680 1819-680ZM365 1923C338 1755 411 1624 545 1552L680 1663C604 1731 594 1823 614 1931L633 2048L386 2048ZM1119 1610L1036 2048L738 2048L734 2020L984 1582L1115 1582Z"  horiz-adv-x="2974" vert-adv-y="2816"  />

      
      <glyph glyph-name="uni1F9C" unicode="&#x1F9C;" d="M983 0L1354 0L1498 870L2447 870L2303 0L2675 0L3015 2048L2643 2048L2499 1181L1550 1181L1694 2048L1323 2048ZM1850-680C1904-680 1942-672 1974-662L2001-506C1987-506 1964-510 1938-510C1888-510 1869-484 1881-420L1928-128L1690-128L1641-422C1611-604 1708-680 1850-680ZM749 2048L503 2048L483 1931C463 1823 422 1731 329 1663L423 1552C580 1624 701 1757 727 1923ZM707 1582L839 1582L1233 2020L1237 2048L943 2048L711 1610Z"  horiz-adv-x="3004" vert-adv-y="2816"  />

      
      <glyph glyph-name="uni1F9D" unicode="&#x1F9D;" d="M1026 0L1397 0L1541 870L2490 870L2346 0L2718 0L3058 2048L2686 2048L2542 1181L1593 1181L1737 2048L1366 2048ZM1893-680C1947-680 1985-672 2017-662L2044-506C2030-506 2007-510 1981-510C1931-510 1912-484 1924-420L1971-128L1733-128L1684-422C1654-604 1751-680 1893-680ZM546 1552L682 1663C612 1730 598 1815 617 1931L636 2048L391 2048L370 1923C343 1752 420 1622 546 1552ZM738 1582L866 1582L1262 2020L1266 2048L968 2048L742 1610Z"  horiz-adv-x="3047" vert-adv-y="2816"  />

      
      <glyph glyph-name="uni1F9E" unicode="&#x1F9E;" d="M826 0L1197 0L1341 870L2290 870L2146 0L2518 0L2858 2048L2486 2048L2342 1181L1393 1181L1537 2048L1166 2048ZM1094 2385C1085 2319 1029 2267 973 2267C858 2267 791 2363 668 2363C533 2363 419 2240 396 2108L544 2065C557 2132 606 2185 663 2185C785 2185 822 2090 970 2090C1106 2090 1218 2206 1242 2338ZM1693-680C1747-680 1785-672 1817-662L1844-506C1830-506 1807-510 1781-510C1731-510 1712-484 1724-420L1771-128L1533-128L1484-422C1454-604 1551-680 1693-680ZM920 2020L701 2020L684 1917C671 1836 640 1757 559 1700L659 1610C785 1672 882 1788 903 1915Z"  horiz-adv-x="2847" vert-adv-y="2816"  />

      
      <glyph glyph-name="uni1F9F" unicode="&#x1F9F;" d="M844 0L1215 0L1359 870L2308 870L2164 0L2536 0L2876 2048L2504 2048L2360 1181L1411 1181L1555 2048L1184 2048ZM1094 2385C1085 2319 1029 2267 973 2267C858 2267 791 2363 668 2363C533 2363 419 2240 396 2108L544 2065C557 2132 606 2185 663 2185C785 2185 822 2090 970 2090C1106 2090 1218 2206 1242 2338ZM1711-680C1765-680 1803-672 1835-662L1862-506C1848-506 1825-510 1799-510C1749-510 1730-484 1742-420L1789-128L1551-128L1502-422C1472-604 1569-680 1711-680ZM678 1915C658 1785 716 1671 817 1610L952 1700C889 1757 885 1836 897 1917L915 2020L696 2020Z"  horiz-adv-x="2865" vert-adv-y="2816"  />

      
      <glyph glyph-name="uni1FCC" unicode="&#x1FCC;" d="M74 0L445 0L589 870L1538 870L1394 0L1766 0L2106 2048L1734 2048L1590 1181L641 1181L785 2048L414 2048ZM941-680C995-680 1033-672 1065-662L1092-506C1078-506 1055-510 1029-510C979-510 960-484 972-420L1019-128L781-128L732-422C702-604 799-680 941-680Z"  horiz-adv-x="2095" vert-adv-y="2816"  />

      
      <glyph glyph-name="uni49" unicode="&#x49;" d="M785 2048L414 2048L74 0L445 0Z"  horiz-adv-x="774" vert-adv-y="2816"  />

      
      <glyph glyph-name="unicf" unicode="&#xcf;" d="M785 2048L414 2048L74 0L445 0ZM958 2274C1058 2274 1144 2350 1158 2440C1177 2558 1098 2651 979 2651C886 2651 796 2580 779 2485C760 2370 845 2274 958 2274ZM358 2274C458 2274 544 2350 558 2440C577 2558 498 2651 379 2651C286 2651 194 2580 179 2485C162 2372 245 2274 358 2274Z"  horiz-adv-x="774" vert-adv-y="2816"  />

      
      <glyph glyph-name="uni1E2E" unicode="&#x1E2E;" d="M785 2048L414 2048L74 0L445 0ZM923 2193C1020 2193 1104 2266 1118 2352C1136 2466 1059 2555 943 2555C853 2555 765 2487 749 2396C730 2285 813 2193 923 2193ZM339 2193C436 2193 520 2266 533 2352C552 2466 475 2555 359 2555C268 2555 179 2487 164 2396C148 2287 229 2193 339 2193ZM546 2688L820 2688L1219 3025L872 3025Z"  horiz-adv-x="774" vert-adv-y="2816"  />

      
      <glyph glyph-name="uni0197" unicode="&#x0197;" d="M785 2048L414 2048L271 1187L-24 1187L-64 958L233 958L74 0L445 0L604 958L895 958L935 1187L642 1187Z"  horiz-adv-x="774" vert-adv-y="2816"  />

      
      <glyph glyph-name="uni1E2C" unicode="&#x1E2C;" d="M785 2048L414 2048L74 0L445 0ZM-68-535C-52-444 8-383 79-383C212-383 227-525 421-525C599-524 762-387 802-148L589-139C575-228 516-292 440-292C315-292 269-150 94-150C-84-150-246-292-285-530Z"  horiz-adv-x="774" vert-adv-y="2816"  />

      
      <glyph glyph-name="unicc" unicode="&#xcc;" d="M785 2048L414 2048L74 0L445 0ZM501 2250L772 2250L625 2707L271 2707Z"  horiz-adv-x="774" vert-adv-y="2816"  />

      
      <glyph glyph-name="unicd" unicode="&#xcd;" d="M785 2048L414 2048L74 0L445 0ZM494 2250L764 2250L1147 2707L793 2707Z"  horiz-adv-x="774" vert-adv-y="2816"  />

      
      <glyph glyph-name="unice" unicode="&#xce;" d="M785 2048L414 2048L74 0L445 0ZM833 2232L1149 2232L1151 2246L843 2678L560 2678L111 2246L109 2232L426 2232L671 2488Z"  horiz-adv-x="774" vert-adv-y="2816"  />

      
      <glyph glyph-name="uni0128" unicode="&#x0128;" d="M1029 2048L658 2048L318 0L689 0ZM582 2235C598 2326 658 2387 729 2387C862 2387 877 2245 1071 2245C1249 2246 1412 2383 1452 2622L1239 2631C1225 2542 1166 2478 1090 2478C965 2478 919 2620 744 2620C566 2620 404 2478 365 2240Z"  horiz-adv-x="1262" vert-adv-y="2816"  />

      
      <glyph glyph-name="uni012A" unicode="&#x012A;" d="M785 2048L414 2048L74 0L445 0ZM1165 2560L201 2560L166 2339L1129 2339Z"  horiz-adv-x="774" vert-adv-y="2816"  />

      
      <glyph glyph-name="uni012C" unicode="&#x012C;" d="M785 2048L414 2048L74 0L445 0ZM883 2576C866 2478 797 2391 655 2391C512 2391 472 2480 489 2576L219 2576C180 2342 334 2184 620 2184C908 2184 1115 2342 1154 2576Z"  horiz-adv-x="774" vert-adv-y="2816"  />

      
      <glyph glyph-name="uni012E" unicode="&#x012E;" d="M785 2048L414 2048L78 26C-50-69-115-198-118-318C-126-489-17-582 156-582C256-582 339-550 391-522L388-318C359-329 319-346 269-346C200-346 175-310 188-246C204-142 313-69 445 0Z"  horiz-adv-x="774" vert-adv-y="2816"  />

      
      <glyph glyph-name="uni0130" unicode="&#x0130;" d="M785 2048L414 2048L74 0L445 0ZM651 2266C766 2266 868 2354 876 2462C885 2571 799 2659 684 2659C568 2659 467 2571 457 2462C448 2354 536 2266 651 2266Z"  horiz-adv-x="774" vert-adv-y="2816"  />

      
      <glyph glyph-name="uni01CF" unicode="&#x01CF;" d="M785 2048L414 2048L74 0L445 0ZM498 2678L182 2678L180 2664L488 2232L771 2232L1220 2664L1222 2678L905 2678L660 2422Z"  horiz-adv-x="774" vert-adv-y="2816"  />

      
      <glyph glyph-name="uni0208" unicode="&#x0208;" d="M785 2048L414 2048L74 0L445 0ZM273 2250L543 2250L396 2707L31 2707ZM744 2250L1009 2250L954 2707L596 2707Z"  horiz-adv-x="774" vert-adv-y="2816"  />

      
      <glyph glyph-name="uni020A" unicode="&#x020A;" d="M785 2048L414 2048L74 0L445 0ZM173 2297L444 2297C457 2393 527 2483 672 2483C812 2483 852 2396 838 2297L1109 2297C1148 2531 993 2698 706 2698C417 2698 211 2531 173 2297Z"  horiz-adv-x="774" vert-adv-y="2816"  />

      
      <glyph glyph-name="uni1EC8" unicode="&#x1EC8;" d="M785 2048L414 2048L74 0L445 0ZM774 2264L788 2356C899 2372 1012 2429 1034 2556C1060 2722 904 2824 575 2824L534 2645C650 2645 736 2621 723 2549C715 2493 656 2462 515 2456L498 2264Z"  horiz-adv-x="774" vert-adv-y="2816"  />

      
      <glyph glyph-name="uni1ECA" unicode="&#x1ECA;" d="M785 2048L414 2048L74 0L445 0ZM189-550C304-550 406-462 414-354C423-245 337-157 222-157C106-157 5-245-5-354C-14-462 74-550 189-550Z"  horiz-adv-x="774" vert-adv-y="2816"  />

      
      <glyph glyph-name="uni0196" unicode="&#x0196;" d="M398 2048L122 381C78 113 195-18 490-10C582-7 645 6 692 20L674 294C655 288 634 284 585 282C495 279 475 326 494 440L760 2048Z"  horiz-adv-x="808" vert-adv-y="2816"  />

      
      <glyph glyph-name="uni0399" unicode="&#x0399;" d="M785 2048L414 2048L74 0L445 0Z"  horiz-adv-x="774" vert-adv-y="2816"  />

      
      <glyph glyph-name="uni038A" unicode="&#x038A;" d="M1022 2048L651 2048L311 0L682 0ZM168 1716L390 1716L679 2189L340 2189Z"  horiz-adv-x="1011" vert-adv-y="2816"  />

      
      <glyph glyph-name="uni03AA" unicode="&#x03AA;" d="M785 2048L414 2048L74 0L445 0ZM958 2274C1058 2274 1144 2350 1158 2440C1177 2558 1098 2651 979 2651C886 2651 796 2580 779 2485C760 2370 845 2274 958 2274ZM358 2274C458 2274 544 2350 558 2440C577 2558 498 2651 379 2651C286 2651 194 2580 179 2485C162 2372 245 2274 358 2274Z"  horiz-adv-x="774" vert-adv-y="2816"  />

      
      <glyph glyph-name="uni1F38" unicode="&#x1F38;" d="M1203 2048L832 2048L492 0L863 0ZM738 2048L495 2048L478 1931C459 1815 415 1730 322 1663L419 1552C574 1624 691 1755 719 1923Z"  horiz-adv-x="1187" vert-adv-y="2816"  />

      
      <glyph glyph-name="uni1F39" unicode="&#x1F39;" d="M1177 2048L806 2048L466 0L837 0ZM369 1923C344 1755 417 1624 546 1552L681 1663C610 1731 598 1823 616 1931L635 2048L391 2048Z"  horiz-adv-x="1162" vert-adv-y="2816"  />

      
      <glyph glyph-name="uni1F3A" unicode="&#x1F3A;" d="M1706 2048L1335 2048L995 0L1366 0ZM758 2053L503 2053L487 1949C468 1819 412 1725 322 1641L419 1557C595 1645 714 1781 742 1941ZM1203 1609L1116 2053L822 2053L818 2025L1068 1589L1199 1589Z"  horiz-adv-x="1690" vert-adv-y="2816"  />

      
      <glyph glyph-name="uni1F3B" unicode="&#x1F3B;" d="M1611 2048L1240 2048L900 0L1271 0ZM365 1923C338 1755 411 1624 545 1552L680 1663C604 1731 594 1823 614 1931L633 2048L386 2048ZM1119 1610L1036 2048L738 2048L734 2020L984 1582L1115 1582Z"  horiz-adv-x="1595" vert-adv-y="2816"  />

      
      <glyph glyph-name="uni1F3C" unicode="&#x1F3C;" d="M1641 2048L1270 2048L930 0L1301 0ZM749 2048L503 2048L483 1931C463 1823 422 1731 329 1663L423 1552C580 1624 701 1757 727 1923ZM707 1582L839 1582L1233 2020L1237 2048L943 2048L711 1610Z"  horiz-adv-x="1626" vert-adv-y="2816"  />

      
      <glyph glyph-name="uni1F3D" unicode="&#x1F3D;" d="M1684 2048L1313 2048L973 0L1344 0ZM546 1552L682 1663C612 1730 598 1815 617 1931L636 2048L391 2048L370 1923C343 1752 420 1622 546 1552ZM738 1582L866 1582L1262 2020L1266 2048L968 2048L742 1610Z"  horiz-adv-x="1669" vert-adv-y="2816"  />

      
      <glyph glyph-name="uni1F3E" unicode="&#x1F3E;" d="M1484 2048L1113 2048L773 0L1144 0ZM1094 2385C1085 2319 1029 2267 973 2267C858 2267 791 2363 668 2363C533 2363 419 2240 396 2108L544 2065C557 2132 606 2185 663 2185C785 2185 822 2090 970 2090C1106 2090 1218 2206 1242 2338ZM920 2020L701 2020L684 1917C671 1836 640 1757 559 1700L659 1610C785 1672 882 1788 903 1915Z"  horiz-adv-x="1469" vert-adv-y="2816"  />

      
      <glyph glyph-name="uni1F3F" unicode="&#x1F3F;" d="M1502 2048L1131 2048L791 0L1162 0ZM1094 2385C1085 2319 1029 2267 973 2267C858 2267 791 2363 668 2363C533 2363 419 2240 396 2108L544 2065C557 2132 606 2185 663 2185C785 2185 822 2090 970 2090C1106 2090 1218 2206 1242 2338ZM678 1915C658 1785 716 1671 817 1610L952 1700C889 1757 885 1836 897 1917L915 2020L696 2020Z"  horiz-adv-x="1486" vert-adv-y="2816"  />

      
      <glyph glyph-name="uni1FD8" unicode="&#x1FD8;" d="M785 2048L414 2048L74 0L445 0ZM883 2576C866 2478 797 2391 655 2391C512 2391 472 2480 489 2576L219 2576C180 2342 334 2184 620 2184C908 2184 1115 2342 1154 2576Z"  horiz-adv-x="774" vert-adv-y="2816"  />

      
      <glyph glyph-name="uni1FD9" unicode="&#x1FD9;" d="M785 2048L414 2048L74 0L445 0ZM1165 2560L201 2560L166 2339L1129 2339Z"  horiz-adv-x="774" vert-adv-y="2816"  />

      
      <glyph glyph-name="uni1FDA" unicode="&#x1FDA;" d="M1307 2048L936 2048L596 0L967 0ZM640 1580L774 1580L774 1614L688 2048L390 2048L390 2020Z"  horiz-adv-x="1291" vert-adv-y="2816"  />

      
      <glyph glyph-name="uni1FDB" unicode="&#x1FDB;" d="M1241 2048L871 2048L979 2168L983 2196L632 2196L404 1762L398 1728L582 1728L870 2047L530 0L901 0Z"  horiz-adv-x="1226" vert-adv-y="2816"  />

      
      <glyph glyph-name="uni0406" unicode="&#x0406;" d="M785 2048L414 2048L74 0L445 0Z"  horiz-adv-x="774" vert-adv-y="2816"  />

      
      <glyph glyph-name="uni0407" unicode="&#x0407;" d="M785 2048L414 2048L74 0L445 0ZM958 2274C1058 2274 1144 2350 1158 2440C1177 2558 1098 2651 979 2651C886 2651 796 2580 779 2485C760 2370 845 2274 958 2274ZM358 2274C458 2274 544 2350 558 2440C577 2558 498 2651 379 2651C286 2651 194 2580 179 2485C162 2372 245 2274 358 2274Z"  horiz-adv-x="774" vert-adv-y="2816"  />

      
      <glyph glyph-name="uniE00C" unicode="&#xE00C;" d="M272 1737L633 1737L397 311L36 311L-16 0L1077 0L1129 311L768 311L1004 1737L1365 1737L1417 2048L324 2048Z"  horiz-adv-x="1317" vert-adv-y="2816"  />

      
      <glyph glyph-name="uniE00D" unicode="&#xE00D;" d="M272 1737L633 1737L397 311L36 311L-16 0L1077 0L1129 311L768 311L1004 1737L1365 1737L1417 2048L324 2048ZM1229 2274C1329 2274 1415 2350 1429 2440C1448 2558 1369 2651 1250 2651C1157 2651 1067 2580 1050 2485C1031 2370 1116 2274 1229 2274ZM629 2274C729 2274 815 2350 829 2440C848 2558 769 2651 650 2651C557 2651 465 2580 450 2485C433 2372 516 2274 629 2274Z"  horiz-adv-x="1317" vert-adv-y="2816"  />

      
      <glyph glyph-name="uniE00E" unicode="&#xE00E;" d="M272 1737L633 1737L397 311L36 311L-16 0L1077 0L1129 311L768 311L1004 1737L1365 1737L1417 2048L324 2048ZM1195 2193C1292 2193 1376 2266 1390 2352C1408 2466 1331 2555 1215 2555C1125 2555 1037 2487 1021 2396C1002 2285 1085 2193 1195 2193ZM611 2193C708 2193 792 2266 805 2352C824 2466 747 2555 631 2555C540 2555 451 2487 436 2396C420 2287 501 2193 611 2193ZM818 2688L1092 2688L1491 3025L1144 3025Z"  horiz-adv-x="1317" vert-adv-y="2816"  />

      
      <glyph glyph-name="uniE00F" unicode="&#xE00F;" d="M272 1737L633 1737L542 1187L248 1187L208 958L504 958L397 311L36 311L-16 0L1077 0L1129 311L768 311L875 958L1167 958L1207 1187L913 1187L1004 1737L1365 1737L1417 2048L324 2048Z"  horiz-adv-x="1317" vert-adv-y="2816"  />

      
      <glyph glyph-name="uniE010" unicode="&#xE010;" d="M272 1737L633 1737L397 311L36 311L-16 0L1077 0L1129 311L768 311L1004 1737L1365 1737L1417 2048L324 2048ZM203-535C219-444 279-383 350-383C483-383 498-525 692-525C870-524 1033-387 1073-148L860-139C846-228 787-292 711-292C586-292 540-150 365-150C187-150 25-292-14-530Z"  horiz-adv-x="1317" vert-adv-y="2816"  />

      
      <glyph glyph-name="uniE011" unicode="&#xE011;" d="M272 1737L633 1737L397 311L36 311L-16 0L1077 0L1129 311L768 311L1004 1737L1365 1737L1417 2048L324 2048ZM772 2250L1043 2250L896 2707L542 2707Z"  horiz-adv-x="1317" vert-adv-y="2816"  />

      
      <glyph glyph-name="uniE012" unicode="&#xE012;" d="M272 1737L633 1737L397 311L36 311L-16 0L1077 0L1129 311L768 311L1004 1737L1365 1737L1417 2048L324 2048ZM765 2250L1035 2250L1418 2707L1064 2707Z"  horiz-adv-x="1317" vert-adv-y="2816"  />

      
      <glyph glyph-name="uniE013" unicode="&#xE013;" d="M272 1737L633 1737L397 311L36 311L-16 0L1077 0L1129 311L768 311L1004 1737L1365 1737L1417 2048L324 2048ZM1105 2232L1421 2232L1423 2246L1115 2678L832 2678L383 2246L381 2232L698 2232L943 2488Z"  horiz-adv-x="1317" vert-adv-y="2816"  />

      
      <glyph glyph-name="uniE014" unicode="&#xE014;" d="M272 1737L633 1737L397 311L36 311L-16 0L1077 0L1129 311L768 311L1004 1737L1365 1737L1417 2048L324 2048ZM609 2235C625 2326 685 2387 756 2387C889 2387 904 2245 1098 2245C1276 2246 1439 2383 1479 2622L1266 2631C1252 2542 1193 2478 1117 2478C992 2478 946 2620 771 2620C593 2620 431 2478 392 2240Z"  horiz-adv-x="1317" vert-adv-y="2816"  />

      
      <glyph glyph-name="uniE015" unicode="&#xE015;" d="M272 1737L633 1737L397 311L36 311L-16 0L1077 0L1129 311L768 311L1004 1737L1365 1737L1417 2048L324 2048ZM1436 2560L472 2560L437 2339L1400 2339Z"  horiz-adv-x="1317" vert-adv-y="2816"  />

      
      <glyph glyph-name="uniE016" unicode="&#xE016;" d="M272 1737L633 1737L397 311L36 311L-16 0L1077 0L1129 311L768 311L1004 1737L1365 1737L1417 2048L324 2048ZM1155 2576C1138 2478 1069 2391 927 2391C784 2391 744 2480 761 2576L491 2576C452 2342 606 2184 892 2184C1180 2184 1387 2342 1426 2576Z"  horiz-adv-x="1317" vert-adv-y="2816"  />

      
      <glyph glyph-name="uniE017" unicode="&#xE017;" d="M272 1737L633 1737L397 311L36 311L-16 0L678 0C571-92 517-209 514-318C506-489 615-582 788-582C888-582 971-550 1023-522L1020-318C991-329 951-346 901-346C832-346 807-310 820-246C836-142 945-69 1077 0L1129 311L768 311L1004 1737L1365 1737L1417 2048L324 2048Z"  horiz-adv-x="1317" vert-adv-y="2816"  />

      
      <glyph glyph-name="uniE018" unicode="&#xE018;" d="M272 1737L633 1737L397 311L36 311L-16 0L1077 0L1129 311L768 311L1004 1737L1365 1737L1417 2048L324 2048ZM922 2266C1037 2266 1139 2354 1147 2462C1156 2571 1070 2659 955 2659C839 2659 738 2571 728 2462C719 2354 807 2266 922 2266Z"  horiz-adv-x="1317" vert-adv-y="2816"  />

      
      <glyph glyph-name="uniE019" unicode="&#xE019;" d="M272 1737L633 1737L397 311L36 311L-16 0L1077 0L1129 311L768 311L1004 1737L1365 1737L1417 2048L324 2048ZM770 2678L454 2678L452 2664L760 2232L1043 2232L1492 2664L1494 2678L1177 2678L932 2422Z"  horiz-adv-x="1317" vert-adv-y="2816"  />

      
      <glyph glyph-name="uniE01A" unicode="&#xE01A;" d="M272 1737L633 1737L397 311L36 311L-16 0L1077 0L1129 311L768 311L1004 1737L1365 1737L1417 2048L324 2048ZM544 2250L814 2250L667 2707L302 2707ZM1015 2250L1280 2250L1225 2707L867 2707Z"  horiz-adv-x="1317" vert-adv-y="2816"  />

      
      <glyph glyph-name="uniE01B" unicode="&#xE01B;" d="M272 1737L633 1737L397 311L36 311L-16 0L1077 0L1129 311L768 311L1004 1737L1365 1737L1417 2048L324 2048ZM444 2297L715 2297C728 2393 798 2483 943 2483C1083 2483 1123 2396 1109 2297L1380 2297C1419 2531 1264 2698 977 2698C688 2698 482 2531 444 2297Z"  horiz-adv-x="1317" vert-adv-y="2816"  />

      
      <glyph glyph-name="uniE01C" unicode="&#xE01C;" d="M272 1737L633 1737L397 311L36 311L-16 0L1077 0L1129 311L768 311L1004 1737L1365 1737L1417 2048L324 2048ZM1046 2264L1060 2356C1171 2372 1284 2429 1306 2556C1332 2722 1176 2824 847 2824L806 2645C922 2645 1008 2621 995 2549C987 2493 928 2462 787 2456L770 2264Z"  horiz-adv-x="1317" vert-adv-y="2816"  />

      
      <glyph glyph-name="uniE01D" unicode="&#xE01D;" d="M272 1737L633 1737L397 311L36 311L-16 0L1077 0L1129 311L768 311L1004 1737L1365 1737L1417 2048L324 2048ZM461-550C576-550 678-462 686-354C695-245 609-157 494-157C378-157 277-245 267-354C258-462 346-550 461-550Z"  horiz-adv-x="1317" vert-adv-y="2816"  />

      
      <glyph glyph-name="uniE01E" unicode="&#xE01E;" d="M717 1737L1078 1737L842 311L481 311L429 0L1522 0L1574 311L1213 311L1449 1737L1810 1737L1862 2048L769 2048ZM676 2048L433 2048L416 1931C397 1815 353 1730 260 1663L357 1552C512 1624 629 1755 657 1923Z"  horiz-adv-x="1762" vert-adv-y="2816"  />

      
      <glyph glyph-name="uniE01F" unicode="&#xE01F;" d="M686 1737L1047 1737L811 311L450 311L398 0L1491 0L1543 311L1182 311L1418 1737L1779 1737L1831 2048L738 2048ZM302 1923C277 1755 350 1624 479 1552L614 1663C543 1731 531 1823 549 1931L568 2048L324 2048Z"  horiz-adv-x="1731" vert-adv-y="2816"  />

      
      <glyph glyph-name="uniE020" unicode="&#xE020;" d="M1217 1737L1578 1737L1342 311L981 311L929 0L2022 0L2074 311L1713 311L1949 1737L2310 1737L2362 2048L1269 2048ZM693 2053L438 2053L422 1949C403 1819 347 1725 257 1641L354 1557C530 1645 649 1781 677 1941ZM1138 1609L1051 2053L757 2053L753 2025L1003 1589L1134 1589Z"  horiz-adv-x="2262" vert-adv-y="2816"  />

      
      <glyph glyph-name="uniE021" unicode="&#xE021;" d="M1125 1737L1486 1737L1250 311L889 311L837 0L1930 0L1982 311L1621 311L1857 1737L2218 1737L2270 2048L1177 2048ZM303 1923C276 1755 349 1624 483 1552L618 1663C542 1731 532 1823 552 1931L571 2048L324 2048ZM1057 1610L974 2048L676 2048L672 2020L922 1582L1053 1582Z"  horiz-adv-x="2170" vert-adv-y="2816"  />

      
      <glyph glyph-name="uniE022" unicode="&#xE022;" d="M1147 1737L1508 1737L1272 311L911 311L859 0L1952 0L2004 311L1643 311L1879 1737L2240 1737L2292 2048L1199 2048ZM679 2048L433 2048L413 1931C393 1823 352 1731 259 1663L353 1552C510 1624 631 1757 657 1923ZM637 1582L769 1582L1163 2020L1167 2048L873 2048L641 1610Z"  horiz-adv-x="2192" vert-adv-y="2816"  />

      
      <glyph glyph-name="uniE023" unicode="&#xE023;" d="M1194 1737L1555 1737L1319 311L958 311L906 0L1999 0L2051 311L1690 311L1926 1737L2287 1737L2339 2048L1246 2048ZM479 1552L615 1663C545 1730 531 1815 550 1931L569 2048L324 2048L303 1923C276 1752 353 1622 479 1552ZM671 1582L799 1582L1195 2020L1199 2048L901 2048L675 1610Z"  horiz-adv-x="2238" vert-adv-y="2816"  />

      
      <glyph glyph-name="uniE024" unicode="&#xE024;" d="M997 1737L1358 1737L1122 311L761 311L709 0L1802 0L1854 311L1493 311L1729 1737L2090 1737L2142 2048L1049 2048ZM1030 2385C1021 2319 965 2267 909 2267C794 2267 727 2363 604 2363C469 2363 355 2240 332 2108L480 2065C493 2132 542 2185 599 2185C721 2185 758 2090 906 2090C1042 2090 1154 2206 1178 2338ZM856 2020L637 2020L620 1917C607 1836 576 1757 495 1700L595 1610C721 1672 818 1788 839 1915Z"  horiz-adv-x="2042" vert-adv-y="2816"  />

      
      <glyph glyph-name="uniE025" unicode="&#xE025;" d="M1016 1737L1377 1737L1141 311L780 311L728 0L1821 0L1873 311L1512 311L1748 1737L2109 1737L2161 2048L1068 2048ZM1031 2385C1022 2319 966 2267 910 2267C795 2267 728 2363 605 2363C470 2363 356 2240 333 2108L481 2065C494 2132 543 2185 600 2185C722 2185 759 2090 907 2090C1043 2090 1155 2206 1179 2338ZM615 1915C595 1785 653 1671 754 1610L889 1700C826 1757 822 1836 834 1917L852 2020L633 2020Z"  horiz-adv-x="2061" vert-adv-y="2816"  />

      
      <glyph glyph-name="uniE026" unicode="&#xE026;" d="M272 1737L633 1737L397 311L36 311L-16 0L1077 0L1129 311L768 311L1004 1737L1365 1737L1417 2048L324 2048ZM1155 2576C1138 2478 1069 2391 927 2391C784 2391 744 2480 761 2576L491 2576C452 2342 606 2184 892 2184C1180 2184 1387 2342 1426 2576Z"  horiz-adv-x="1317" vert-adv-y="2816"  />

      
      <glyph glyph-name="uniE027" unicode="&#xE027;" d="M272 1737L633 1737L397 311L36 311L-16 0L1077 0L1129 311L768 311L1004 1737L1365 1737L1417 2048L324 2048ZM1436 2560L472 2560L437 2339L1400 2339Z"  horiz-adv-x="1317" vert-adv-y="2816"  />

      
      <glyph glyph-name="uniE028" unicode="&#xE028;" d="M818 1737L1179 1737L943 311L582 311L530 0L1623 0L1675 311L1314 311L1550 1737L1911 1737L1963 2048L870 2048ZM574 1580L708 1580L708 1614L622 2048L324 2048L324 2020Z"  horiz-adv-x="1862" vert-adv-y="2816"  />

      
      <glyph glyph-name="uniE029" unicode="&#xE029;" d="M748 1737L1109 1737L873 311L512 311L460 0L1553 0L1605 311L1244 311L1480 1737L1841 1737L1893 2048L802 2048L910 2168L914 2196L563 2196L335 1762L329 1728L513 1728L800 2046Z"  horiz-adv-x="1793" vert-adv-y="2816"  />

      
      <glyph glyph-name="uniE02A" unicode="&#xE02A;" d="M272 1737L633 1737L397 311L36 311L-16 0L1077 0L1129 311L768 311L1004 1737L1365 1737L1417 2048L324 2048Z"  horiz-adv-x="1317" vert-adv-y="2816"  />

      
      <glyph glyph-name="uniE02B" unicode="&#xE02B;" d="M272 1737L633 1737L397 311L36 311L-16 0L1077 0L1129 311L768 311L1004 1737L1365 1737L1417 2048L324 2048ZM1230 2274C1330 2274 1416 2350 1430 2440C1449 2558 1370 2651 1251 2651C1158 2651 1068 2580 1051 2485C1032 2370 1117 2274 1230 2274ZM630 2274C730 2274 816 2350 830 2440C849 2558 770 2651 651 2651C558 2651 466 2580 451 2485C434 2372 517 2274 630 2274Z"  horiz-adv-x="1317" vert-adv-y="2816"  />

      
      <glyph glyph-name="uni4a" unicode="&#x4a;" d="M1222 2048L985 613C947 397 821 277 640 277C476 277 387 373 410 544L46 544C-16 167 231-28 594-28C993-28 1285 208 1350 603L1590 2048Z"  horiz-adv-x="1579" vert-adv-y="2816"  />

      
      <glyph glyph-name="uni0134" unicode="&#x0134;" d="M1222 2048L985 613C947 397 821 277 640 277C476 277 387 373 410 544L46 544C-16 167 231-28 594-28C993-28 1285 208 1350 603L1590 2048ZM1641 2232L1957 2232L1959 2246L1651 2678L1368 2678L919 2246L917 2232L1234 2232L1479 2488Z"  horiz-adv-x="1579" vert-adv-y="2816"  />

      
      <glyph glyph-name="uni0248" unicode="&#x0248;" d="M1222 2048L1104 1336L808 1336L768 1107L1067 1107L985 613C947 397 821 277 640 277C476 277 387 373 410 544L46 544C-16 167 231-28 594-28C993-28 1285 208 1350 603L1434 1107L1727 1107L1767 1336L1472 1336L1590 2048Z"  horiz-adv-x="1579" vert-adv-y="2816"  />

      
      <glyph glyph-name="uni037F" unicode="&#x037F;" d="M1222 2048L985 613C947 397 821 277 640 277C476 277 387 373 410 544L46 544C-16 167 231-28 594-28C993-28 1285 208 1350 603L1590 2048Z"  horiz-adv-x="1579" vert-adv-y="2816"  />

      
      <glyph glyph-name="uni0408" unicode="&#x0408;" d="M1222 2048L985 613C947 397 821 277 640 277C476 277 387 373 410 544L46 544C-16 167 231-28 594-28C993-28 1285 208 1350 603L1590 2048Z"  horiz-adv-x="1579" vert-adv-y="2816"  />

      
      <glyph glyph-name="uni4b" unicode="&#x4b;" d="M74 0L445 0L547 608L821 878L1283 0L1729 0L1119 1129L2062 2048L1609 2048L655 1107L630 1107L785 2048L414 2048Z"  horiz-adv-x="1906" vert-adv-y="2816"  />

      
      <glyph glyph-name="uni0136" unicode="&#x0136;" d="M74 0L445 0L547 608L821 878L1283 0L1729 0L1119 1129L2062 2048L1609 2048L655 1107L630 1107L785 2048L414 2048ZM439-662L700-662L987-160L643-160Z"  horiz-adv-x="1906" vert-adv-y="2816"  />

      
      <glyph glyph-name="uni01E8" unicode="&#x01E8;" d="M74 0L445 0L547 608L821 878L1283 0L1729 0L1119 1129L2062 2048L1609 2048L655 1107L630 1107L785 2048L414 2048ZM1063 2678L747 2678L745 2664L1053 2232L1336 2232L1785 2664L1787 2678L1470 2678L1225 2422Z"  horiz-adv-x="1906" vert-adv-y="2816"  />

      
      <glyph glyph-name="uni1E30" unicode="&#x1E30;" d="M74 0L445 0L547 608L821 878L1283 0L1729 0L1119 1129L2062 2048L1609 2048L655 1107L630 1107L785 2048L414 2048ZM1059 2250L1329 2250L1712 2707L1358 2707Z"  horiz-adv-x="1906" vert-adv-y="2816"  />

      
      <glyph glyph-name="uni1E32" unicode="&#x1E32;" d="M74 0L445 0L547 608L821 878L1283 0L1729 0L1119 1129L2062 2048L1609 2048L655 1107L630 1107L785 2048L414 2048ZM766-548C881-548 983-460 991-352C1000-243 914-155 799-155C683-155 582-243 572-352C563-460 651-548 766-548Z"  horiz-adv-x="1906" vert-adv-y="2816"  />

      
      <glyph glyph-name="uni1E34" unicode="&#x1E34;" d="M74 0L445 0L547 608L821 878L1283 0L1729 0L1119 1129L2062 2048L1609 2048L655 1107L630 1107L785 2048L414 2048ZM1279-252L315-252L280-473L1243-473Z"  horiz-adv-x="1906" vert-adv-y="2816"  />

      
      <glyph glyph-name="uni04A0" unicode="&#x04A0;" d="M1615 0L2072 0L1415 1114L2377 2048L1920 2048L1052 1206L959 1206L1099 2048L250 2048L202 1750L679 1750L388 0L759 0L908 895L1090 895Z"  horiz-adv-x="2294" vert-adv-y="2816"  />

      
      <glyph glyph-name="uni049A" unicode="&#x049A;" d="M1301 0L1450 0L1371-484L1725-484L1849 280L1593 280L1101 1114L2063 2048L1606 2048L738 1206L645 1206L785 2048L414 2048L74 0L445 0L594 895L776 895Z"  horiz-adv-x="2036" vert-adv-y="2816"  />

      
      <glyph glyph-name="uni0198" unicode="&#x0198;" d="M74 0L445 0L541 574L838 848L1336 0L1782 0L1116 1110L1724 1654C1834 1753 1917 1778 2010 1721L2181 1986C1978 2126 1732 2098 1505 1894L657 1122L631 1122L785 2048L414 2048Z"  horiz-adv-x="1999" vert-adv-y="2816"  />

      
      <glyph glyph-name="uni039A" unicode="&#x039A;" d="M74 0L445 0L547 608L821 878L1283 0L1729 0L1119 1129L2062 2048L1609 2048L655 1107L630 1107L785 2048L414 2048Z"  horiz-adv-x="1906" vert-adv-y="2816"  />

      
      <glyph glyph-name="uni4c" unicode="&#x4c;" d="M74 0L1347 0L1399 311L497 311L785 2048L414 2048Z"  horiz-adv-x="1594" vert-adv-y="2816"  />

      
      <glyph glyph-name="uni0139" unicode="&#x0139;" d="M74 0L1347 0L1399 311L497 311L785 2048L414 2048ZM495 2250L765 2250L1148 2707L794 2707Z"  horiz-adv-x="1594" vert-adv-y="2816"  />

      
      <glyph glyph-name="uni013B" unicode="&#x013B;" d="M74 0L1347 0L1399 311L497 311L785 2048L414 2048ZM292-664L553-664L840-162L496-162Z"  horiz-adv-x="1594" vert-adv-y="2816"  />

      
      <glyph glyph-name="uni013D" unicode="&#x013D;" d="M74 0L1347 0L1399 311L497 311L785 2048L414 2048ZM1035 1626L1257 1626L1416 2150L1122 2150Z"  horiz-adv-x="1594" vert-adv-y="2816"  />

      
      <glyph glyph-name="uni1E36" unicode="&#x1E36;" d="M74 0L1347 0L1399 311L497 311L785 2048L414 2048ZM619-550C734-550 836-462 844-354C853-245 767-157 652-157C536-157 435-245 425-354C416-462 504-550 619-550Z"  horiz-adv-x="1594" vert-adv-y="2816"  />

      
      <glyph glyph-name="uni1E38" unicode="&#x1E38;" d="M74 0L1347 0L1399 311L497 311L785 2048L414 2048ZM1167 2560L203 2560L168 2339L1131 2339ZM619-550C734-550 836-462 844-354C853-245 767-157 652-157C536-157 435-245 425-354C416-462 504-550 619-550Z"  horiz-adv-x="1594" vert-adv-y="2816"  />

      
      <glyph glyph-name="uni1E3A" unicode="&#x1E3A;" d="M74 0L1347 0L1399 311L497 311L785 2048L414 2048ZM1132-254L168-254L133-475L1096-475Z"  horiz-adv-x="1594" vert-adv-y="2816"  />

      
      <glyph glyph-name="uni1E3C" unicode="&#x1E3C;" d="M74 0L1347 0L1399 311L497 311L785 2048L414 2048ZM803-574L1119-574L1121-560L813-128L530-128L81-560L79-574L396-574L641-318Z"  horiz-adv-x="1594" vert-adv-y="2816"  />

      
      </font>
</defs>
</svg>
